<mxfile host="app.diagrams.net" agent="Mozilla/5.0 (Windows NT 10.0; Win64; x64) AppleWebKit/537.36 (KHTML, like Gecko) Chrome/132.0.0.0 YaBrowser/25.2.0.0 Safari/537.36" version="26.2.13" pages="2">
  <diagram name="Страница — 1" id="zWehQkpN4xfnUat3dDcE">
    <mxGraphModel dx="1002" dy="575" grid="1" gridSize="10" guides="1" tooltips="1" connect="1" arrows="1" fold="1" page="1" pageScale="1" pageWidth="827" pageHeight="1169" math="0" shadow="0">
      <root>
        <mxCell id="0" />
        <mxCell id="1" parent="0" />
        <mxCell id="2JQgbApqm6Oe2Ly4wv3b-4" value="" style="edgeStyle=orthogonalEdgeStyle;rounded=0;orthogonalLoop=1;jettySize=auto;html=1;" edge="1" parent="1" source="2JQgbApqm6Oe2Ly4wv3b-2" target="2JQgbApqm6Oe2Ly4wv3b-3">
          <mxGeometry relative="1" as="geometry" />
        </mxCell>
        <mxCell id="2JQgbApqm6Oe2Ly4wv3b-2" value="Начало" style="rounded=1;whiteSpace=wrap;html=1;arcSize=50;" vertex="1" parent="1">
          <mxGeometry x="359.09" y="20" width="120" height="40" as="geometry" />
        </mxCell>
        <mxCell id="2JQgbApqm6Oe2Ly4wv3b-71" style="edgeStyle=orthogonalEdgeStyle;rounded=0;orthogonalLoop=1;jettySize=auto;html=1;exitX=0.5;exitY=1;exitDx=0;exitDy=0;entryX=0.5;entryY=0;entryDx=0;entryDy=0;" edge="1" parent="1" source="2JQgbApqm6Oe2Ly4wv3b-3" target="2JQgbApqm6Oe2Ly4wv3b-54">
          <mxGeometry relative="1" as="geometry" />
        </mxCell>
        <mxCell id="2JQgbApqm6Oe2Ly4wv3b-3" value="Ввод&lt;div&gt;&amp;nbsp; &amp;nbsp;&amp;nbsp;&lt;/div&gt;" style="shape=parallelogram;perimeter=parallelogramPerimeter;whiteSpace=wrap;html=1;fixedSize=1;" vertex="1" parent="1">
          <mxGeometry x="359.09" y="80" width="120" height="60" as="geometry" />
        </mxCell>
        <mxCell id="2JQgbApqm6Oe2Ly4wv3b-7" value="" style="rounded=0;whiteSpace=wrap;html=1;" vertex="1" parent="1">
          <mxGeometry x="280.01" y="350" width="280" height="88.12" as="geometry" />
        </mxCell>
        <mxCell id="2JQgbApqm6Oe2Ly4wv3b-23" style="edgeStyle=orthogonalEdgeStyle;rounded=0;orthogonalLoop=1;jettySize=auto;html=1;exitX=0.5;exitY=1;exitDx=0;exitDy=0;entryX=0.5;entryY=0;entryDx=0;entryDy=0;" edge="1" parent="1" target="2JQgbApqm6Oe2Ly4wv3b-18">
          <mxGeometry relative="1" as="geometry">
            <mxPoint x="420.01" y="440" as="sourcePoint" />
          </mxGeometry>
        </mxCell>
        <mxCell id="2JQgbApqm6Oe2Ly4wv3b-29" style="edgeStyle=orthogonalEdgeStyle;rounded=0;orthogonalLoop=1;jettySize=auto;html=1;exitX=0.5;exitY=1;exitDx=0;exitDy=0;entryX=0.5;entryY=0;entryDx=0;entryDy=0;" edge="1" parent="1" source="2JQgbApqm6Oe2Ly4wv3b-18" target="2JQgbApqm6Oe2Ly4wv3b-28">
          <mxGeometry relative="1" as="geometry" />
        </mxCell>
        <mxCell id="2JQgbApqm6Oe2Ly4wv3b-64" style="edgeStyle=orthogonalEdgeStyle;rounded=0;orthogonalLoop=1;jettySize=auto;html=1;exitX=1;exitY=0.5;exitDx=0;exitDy=0;" edge="1" parent="1" source="2JQgbApqm6Oe2Ly4wv3b-18">
          <mxGeometry relative="1" as="geometry">
            <mxPoint x="420" y="230" as="targetPoint" />
            <Array as="points">
              <mxPoint x="590" y="500" />
              <mxPoint x="590" y="230" />
            </Array>
          </mxGeometry>
        </mxCell>
        <mxCell id="2JQgbApqm6Oe2Ly4wv3b-18" value="" style="rhombus;whiteSpace=wrap;html=1;" vertex="1" parent="1">
          <mxGeometry x="350" y="460" width="140" height="80" as="geometry" />
        </mxCell>
        <mxCell id="2JQgbApqm6Oe2Ly4wv3b-25" value="Конец" style="rounded=1;whiteSpace=wrap;html=1;arcSize=50;" vertex="1" parent="1">
          <mxGeometry x="360" y="670" width="120" height="40" as="geometry" />
        </mxCell>
        <mxCell id="2JQgbApqm6Oe2Ly4wv3b-27" value="да" style="text;html=1;align=center;verticalAlign=middle;resizable=0;points=[];autosize=1;strokeColor=none;fillColor=none;" vertex="1" parent="1">
          <mxGeometry x="414.01" y="540" width="40" height="30" as="geometry" />
        </mxCell>
        <mxCell id="2JQgbApqm6Oe2Ly4wv3b-68" style="edgeStyle=orthogonalEdgeStyle;rounded=0;orthogonalLoop=1;jettySize=auto;html=1;exitX=0.5;exitY=1;exitDx=0;exitDy=0;entryX=0.5;entryY=0;entryDx=0;entryDy=0;" edge="1" parent="1" source="2JQgbApqm6Oe2Ly4wv3b-28" target="2JQgbApqm6Oe2Ly4wv3b-25">
          <mxGeometry relative="1" as="geometry" />
        </mxCell>
        <mxCell id="2JQgbApqm6Oe2Ly4wv3b-28" value="Вывести&amp;nbsp; &amp;nbsp; &amp;nbsp;&amp;nbsp;" style="shape=parallelogram;perimeter=parallelogramPerimeter;whiteSpace=wrap;html=1;fixedSize=1;" vertex="1" parent="1">
          <mxGeometry x="360.02" y="585" width="120" height="60" as="geometry" />
        </mxCell>
        <mxCell id="2JQgbApqm6Oe2Ly4wv3b-38" value="нет" style="text;html=1;align=center;verticalAlign=middle;resizable=0;points=[];autosize=1;strokeColor=none;fillColor=none;" vertex="1" parent="1">
          <mxGeometry x="480.01" y="468" width="40" height="30" as="geometry" />
        </mxCell>
        <mxCell id="2JQgbApqm6Oe2Ly4wv3b-47" value="" style="shape=image;verticalLabelPosition=bottom;labelBackgroundColor=default;verticalAlign=top;aspect=fixed;imageAspect=0;image=data:image/png,iVBORw0KGgoAAAANSUhEUgAAAGQAAAAfCAYAAAARB2hWAAAAAXNSR0IArs4c6QAAAARnQU1BAACxjwv8YQUAAAAJcEhZcwAADsMAAA7DAcdvqGQAAAcoSURBVGhD7Zp/bFNVFMe/GpPNmK4m/FH9g5TgsoFKKwQ6FWwjkBETNvyxzUXm/mAOg7IpbiORshhoFmGFBNaZyISoDQbSTZTOaFZ00JnMtBDcayKuSyR7RJPWaNJHIH0EyPW8H93atVtfx2Ia0k/y3r3vvPfuPfede+85p+kDjECBvOFBtSyQJxQMkmcUDJJnFAySZ8zDIAL4i154B4PgBVVUQBs3BQiCdIiqIJ0cDcKjf/tq2IPFQMiBFa/2IazeKTAXUXi3l6Dk8cVYvJiOfSM0rTOTk0GEQSeaTltRtyoC90E/cJFHZHZjF5jCgOq+67j+U6d8ZTOVQy/X0snBIFH4BtyA6RkYV9qw3dmF3qHdsNFiKaAN/g+OzgZYzUZFkAHtBhHHMfYNlS+aUF5sROXbLWh8bjY7F0hHQDjopbIOluWKJBPaDTIRwggVtieWoLAo5kMYgeNU1Fdg2RwfMKtBhCt++Ef88P0cgLTg9EJYvvaPhGd1TFkRabZcVNr1j3CI5uqHBB6+ky44Ou1wDXCyHiJFL7k1I4A7bcfOd+xw/5I+EmncwWsL6CBDAfiosFkeg3jODfs7DWg/6kV4RtdZDCJi8koIoV9D8A1Ly82MolhYvg79LaJIeUg7d6LwH23AihUb0e1V2g39Hs3pQ4ohF2pWNyFgqEZr+25UP+JB0+YqrKDoxXVRfSgrIoIH34V30XZ0vVKMnZua4L6q3pIQ/eh+tgobT4VUwb3DX1Em9HhvN9ywodN5HM2LPFizuh2+f5VnZKQfF7MTYWebdUyn62YBVZIzN8ZYT10p062nNmKqLFe4HrZBp2OvfT6pCiQmmecNSbdt7GxEFWWD2nntyJhcjfRvpXdLWfdl+VIh2M1KqZ+27+er6ExibGiXpOMG1h2MqzLiTw/bSv2s61V0kdDoQ3ha3lTUl2P2+GAuRHCftsH+A9CytwWWecUCPNz77AgaOtBSn6xFDBGeihdtMBsUSTa4YBivV5mpxmPoFK18UysqVyr3JDhyvlGaxabyhQpaEv6jFY1r0h0Ix/HUn4I2g1zj5QTQTOGaxjGnIgbg2ReUq77DtajaUqUetFVMyOKsiCNuOM5Rpd6KiuQx/TWBAO0sBqtZ82Qxv9WL2qVUueqHl9o011ppM07AY2KUNhcDyaRnFoKE/3jenPr9ro1DcgQw6KfzEnWlzEl8eA8tt3tYwrRFrKP3dTs8bDIWY7GpI2n5ZmHsEG13GXRI6LZnWHtbCSY/30zvrmM9nCqQiA2xNknXvRdY7i1mJnJmG/VD22JQFago/evY5qQtWNMKifKSc7uHJXxXREQqjUYY9TQbpg6tAXSUom5pUafrEAp66FyLiiepLTGKsObIKApu1E+zsxoVJlUkQc63j4raVcsWLLznJ/rpvAXmMuVagYd/kPpHJWqt02tbg0EoRA1JL1qwbL5LeKmZ1CHuyFfzwACjPBg9Hk4J7cIYGyVDqf5DOO/EZ7/dUu9l55b06PNLUrY67rK8ucA2wyEJV31wH3VRiByF8BcdqlwLBoNNOuPR5LmkbpeWjzpRl/RdNRhkEtwgFa8sm2OPDsJZUoKSEifVMqC34s2PLMAXZ+FLHgmFwUF55tN8HWig90vQMJBwb6mYXuigIQmIT31vAf597XBeoWrZY/I9/6AIqxwxZNFHphj6RVTE4tNh97V+9ByZ6T8oIPmkAfZgORrfa8GmiAOLl++BP0nNbLobV1WSjwpgPBFa3wzDfcABrv4ETrSZU1ZidoOQ0+SoH7OlLNUh5UQxzG1f4+f2COybatDe5YKrqx01L+9B4Ja2jaHY2oEBpx6u1p1wHLVT7vEBwtUn8ePHtTB82wfHh+/Ct74D1dJH1oQele+fRCPvwM5WB1ydTaja5caE9E3rLShXHoJ43oGaUxVoViM7wxIKbKTf83L5GKZm9DqLp3RvWFsD31Nf4VJfbfokV33J7Izulx3Sfn8WFyfH1BrylNvxWR164ICObe3PkkzElYAg5e0bGdrTqg+1lNAnPXiJME9jap4gOeLSA+mt5qT7bfU6A5kN8k+AfXnkGBv6I65EAqX72YW57EGJlDSQmVGEdpSB6xo9VFsAsuozyc7ueJrpzPtZYGpcqg5ryYhTsgDrpnamIzglQZYNFicDqrKF1D2DQRJZpY5tOzMmd7YhaYbcF6gZsm59D0uMbLJ/G2XnMzJpMtyX1UmG5aX3tjIPH2cXDh2benchyeBDilCkpw2S9uwtd71w/9uFw03TadN9waIymNdY0LHDhNgIRTuHa7D50MPovPQdOlIyaSPq9nZi3NdPAQP5qeEiVNZHMDbsRnAphbHqUwvJLH+Uo1D3nA8hsQzWlyi7fEgV309QhMedH0EgWoRyUwXlIobZ8447IgQKPvSPSBdUp0hRew6VG4V/LuYZmjL1Av8fBYPkGQWD5BkFg+QVwH/x8Br45qqK7QAAAABJRU5ErkJggg==;" vertex="1" parent="1">
          <mxGeometry x="389.09" y="110" width="60" height="18.6" as="geometry" />
        </mxCell>
        <mxCell id="2JQgbApqm6Oe2Ly4wv3b-50" value="" style="shape=image;verticalLabelPosition=bottom;labelBackgroundColor=default;verticalAlign=top;aspect=fixed;imageAspect=0;image=data:image/png,iVBORw0KGgoAAAANSUhEUgAAAJYAAAAeCAYAAADO4udXAAAAAXNSR0IArs4c6QAAAARnQU1BAACxjwv8YQUAAAAJcEhZcwAADsMAAA7DAcdvqGQAAAmtSURBVHhe7Zt/aBvnGce/G4NqFMWDwBS2MWeZiAdLreC29taYiDidS0H2aN1kpdb8h1MbUjkhib2FOQnL7BY8xwFHdkZs/xHsBFKkkiC5hFmFRnLBRRq4kjeyKJAghRSskYAENlJp4N3z3r1yTtKdZCV27Lj6gHx6n9NZz73vc8+vO32PEShRYoX5vtiWKLGilAyrxKpQMqwSq0LJsJ4bUgh/5kP0kRiuC2LwXQsgIUZKlmFYKYTOW2E9H6J3G4zFBBIJ/lrDM4uF4Jl0wzMXEwI1UgictWIosRXlPxCidYEBNT/zwdruRFRIluBVYV7ujLMmvZ7p9TbmeiBkzz1BZt/Fz0m8PvQL+bMlGehne3d1M4dnhLW+bGSdnrjYk0nE2cp2HJ1i6nvXnsjFJra3z8+SYswpYFhJ5u+rXVqA2sGgkG8Mkp5O6bw6r6/FksnGbRzwM+9peX4tFyNin4L7LtZqbGaO+2K8LuHnUst6Zh6bVn7Duu9gzbvszOvpZkbJuDaS16LpGOYXDS1aVAieJeSt+Jxyo44Hxpn9govdWhD7lpAvbONpb4Y3WI9ELjUx/dvjLH1p5DWs4GAta3bO83fMXrfRvFaEjTfSOdGFsxZnFLloofm0sPE7QqBGfIp16o2sPyDG65kHLmZT6KqdvD90Y8zZiMMWAw1MaOlqp1QNCA1fgueh9Innm0QYczdo+2YNnd2zJoHwnI+2lSj/iSxRIzHjwSj2o/olIVjPbDbB3BDD6OcBaahpWKHLZxA/0oJqnTwue/OPOFxJb2Kj6P84JAtVSSD08Ql0fHACE1/mFqKJmz4E7q19fZma9dGiAe1V5UjMuTH6URespPPoZFi1fF4RFqMITPvgm/bAx+d/+zeIBvjYh9DXuXMSniUNG3Ziq1gDVWI+TJw7ga5jvZiYlivLxE03ho51oOucG+FFSVQc9zzax0vnoDZH5dheZUBs5pZUIaobVoa3SkNe63iL9C4w6IBPVWEqi/9ug3tzOz56S4eONw5g4q7YxUn50P+bBrx+ZU4I1o7wzWn6W435a93on9uCNzpO4fyRCkw3v4qm8/kunKcgHkHwqznylP/ENJ+CcjICPv4qjDiyrSeK6E3aVJbzj6mS+tcZWAf+B9O7f8ap47sR7a7Fgb90webUofHEIVSGrLAM+IprE91zoqNvHruP0/GB3OOjzg68bumF52shULClvAa4MYcwtzo5ImYSHN7Lmi6pVCiKMr1JrYIJ2VmTyMHmnc30OYq5s9JQRpGw5iVgZ5ZGyxO8etjUsgo8kV/pqZLxKQ/ws35epLQ4GM8sV41ZeR7k/FULWZfaYY0McMHLut97nCzTjDNHCz+nTjZFRcD81VZpnfRFtSnizHUwXaDR9xvp+DaXYi7Ed2jlpTM99J1yBZtrWA8oYTT1MK9GGRJ322SFjd3Mm1XFBMdszCElo7Rwb+cqIFdhBRLWZ4GUFJN+XVNZ1Zaf9Sx3MRaCbOSghTWfnCraCCNXVC66bJJkOKSLlvHFr3eznoy+V5buUS8bGRxh3mIqXlr77gG5H5X09UjGb3MrviM9byc1qlRyHNw2eAKfY1i82aXurQRJsuS019L6nGiqZlaQEeZ4j44z9q9JFaYk+Xm3pH+O5ySPW0vy/J5EZukCE1doMfg/5MeRZ8lnvbzVs0xdJITuqr2wokky72kj6ZjVXpI8kp61XtXQSWFYmTnWIiW0gxU49JZWVCd01Wg50ii99fxtAj6VAB6ddsJDOdn+PYp6i6ow/yRt361GhSxZM+T8qhE1vy6TBYLQFw6EUI96SkILUVbXhgGrmXKZNtT/VAiXRRS3eOJOuZMh8+sz2fxjzdxKjdhtP+luIt2LOUqDlB+es1QIWOth3ixkRGjWQ3/NMJsKz0+GYUWvDSF8pB3mF4VAA4OlDX/i/zt2BkOfZN8liiE0Q6W0gRaOV5FpbvqlKmxf1a9y0tRsUjd60fD7hid4UVJZsKSL4vYMJeeVNdj+cyGSCGH6Csl/1wjzNho+DKtWaku8aEL7PyZx+bgZ+ewjh1QEYd7m2FOZ/wLT/RA/ok1iQVuH1GJ6H1XiM27a7kbldlkiQecQfpLW0H8DcNCmsa5GcW5i3gy7YeLzo8Yjrk8jtvIWinBiUkzvMZF7XmZnXeq08lCwq5/5MwKuSPCyEuB1l19l3x8UhUU69PCUYFUak+lwe6VQyBIFRp/6fUxeYPE8Tbq/KPKxzESbh7PmzPkWeZcrrJFAp1GEtCUK5VeEXLBR7k0fWPJYsU/HcObuKN75xSZs2lT49dIH3C0Sc72wf6q8M69DGXef8eTjMpVKWPtgAWt/VgjP2V6V6S9i0RD5WrMcBhcDmJhpxP5Xxc4VJHYnSL4RMP2yUMgyoJx7/Lmo1BfKJIbbAYqnBhNF1DIkPnNiiIsptqY9TOLLIYzpDmP/0nwn4BlsQNepLlhbxyQdNHlBJzWN40veMoHAhf6CEWc+6idPXCH13WTDStFEDnJX+mS4B3lukqYM9UcuoyXai47DvRg6dQANRydwm9veOsivone4pjxMZwYww2/3o2XbLbjHSO9DLtScbCkqx1ku0dtO+tsOkzJkqaLDztfagckgIjnR0IDqhn2oeK0CCWcHbNON+Pd/aM4nO/D+qSH0HrOSrBrnj1crjKAMpj38nAwwxIKI5ntKp7INZ/9qhuPo+zhxrhddfziAXg9PDPPlVxQqZ2Mw1ZvkeRNebBVIsng8Tq+kdhW2FnxLeuXc7BXwfaRzgUDxFIjKWHGzNi9Z999yWJDn9zFizvOeAIXIkwUq0jTS/6f5+HYZ91UlXWuZPSQPV9iwIsx1cAfTm3oUeVe6qZadi31XSLJb7hFmv+SnBZdzobztnAzksn9ln24IMnubtmHzZ8QsRmNGDshlhdowUn613Kcbikb0XvR1jy2bP6Rm1O+lq+47aVVLyTrv3/l5gWBcfoEkscLPY8Wvd7JOZdMzC38f6cqLgnR0WfCz/jo9M7Y58nhZ+Xks5RqvrGElg6TEXtbj9DKvz8tcA01sR42NjReqQjYyUrP4FdZ6wcVG2l5hNrf2Va/Fij1BSkZqO5jPQMjzXG1ltW0jbIrWz+sZZ511O1hTnzfvd6s9QbryP1h9FEPoxjT8sRdQUVlDSbKhYN9qo5O6F4AnEEVZVT3M24rqegnkZ94nys9i+J2nKSlSSD3SQVfgufnE3QB8M0F8Y9iJyioquBRN0mz4jfB9Y1sxPLovo9gp/RL6uYH/SscP3R7zOvpBRQLhGxFs2WPKaRKXDKvEqqD+PFaJEk9JybBKrALA/wHMFR1n7X362QAAAABJRU5ErkJggg==;" vertex="1" parent="1">
          <mxGeometry x="374.71" y="353" width="90.6" height="18.12" as="geometry" />
        </mxCell>
        <mxCell id="2JQgbApqm6Oe2Ly4wv3b-51" value="" style="shape=image;verticalLabelPosition=bottom;labelBackgroundColor=default;verticalAlign=top;aspect=fixed;imageAspect=0;image=data:image/png,iVBORw0KGgoAAAANSUhEUgAAAZgAAAAeCAYAAAARpQgkAAAAAXNSR0IArs4c6QAAAARnQU1BAACxjwv8YQUAAAAJcEhZcwAADsMAAA7DAcdvqGQAABXVSURBVHhe7Z0PTBt3lse/e4oUn1ICUqSY292uo4biNJviNEpgt8ti5U8dRQVyLYX2NqyvTQLdBsI1BbracChbvNymQLQJsFWA3mXjIjULUbKYqhVOlcScRGRHl2CfyuGsEjHRsoqrIuFTIju6rObeb2YMxtjj/+Ck/qDB/o3H4/m937/3fr/3Zr7DE0jz+PPADe72OKb+tgEFLyihkHanSZMmzXLxd9Jrmscc97QVI6cbUHJhUtqTJk2aNMtLeoB5QsjMLcA6hROlmg1Lb708cMI8ykmJxOG+ZobdLSVShQkzTLe8UuIJYcYG881UE3Sa5cMFy0UbZGtEhO0gPcA8MThhH9ZCt0UppZeIBza067vgXqeSdoTDDe66CaZhGziZGsxdrMWB0SyoM6UdqcJGNR52lKP9euoPMu47NpKzCbY7MoK+a0JttQVZuakm6HB44Xa7hc37SNr1bWPahIa9DTBNS+mEoUTB9y2orB5ESLUxwnaQHmCeFBxWmFCEDassMJ7qQle/Ba6kNzwOg0cOwHWwFeU/kHbJQsdXb0WTjWwshwHPv9pLw+JivNfbcaBbjeZf5qfgWpIK5b9rwGxVDQbvSrtSEO78AWz9wArFIzsMm8vQOyF94A9TDt7qhPpYI/JXSfseA9xfNGD16rV4+umnaavB8F+lD75VeGH5uB69V3rRft4u7Uscim2N6H7xjzjwoY1+KRgRtgO2yJ/m8efe4D4+I6eYbzHfE9KTfcV8Yfe48D5Z3Luwn8/RD/DiL4Zn1lTDZ2Ts54fGzvJlGRn0/ih/1SN96MMzzrftKOTbbIEfpBZCXijvU1I6pfhmiK8h+e6/YOXPvsrknMEfvbxI0Px4x06+8LiV3j2OTPI9OsrbTzr55NbyFOUvA/w+oQ2xrYYf+kban1DG+c6fFPItY6FrSLh2kLZglhU3zB8ag2rx0eGGfcwEXVM3ml8Sp8i8D2dxL5mzOF4bjCdGoT9QQgZ1JLhgPm8E8jZD9YIW1e2t6B55H9oAE8X1WTsMWVWo2JbafnCZL5WjcewoaZBxCnnCiPZLiV3/cF0ZgBEabF6fB+3BDrR+9CXe3x4gz+lhtH+QharypbYSE1Tn3RxuXaPXPQWU09TGfakdxmAWZMx4YevvRNbZL9H9EktTHepPvBUDkmzpL5Ro7xgIOVUWrh2kB5hlxQv3hEt+MS0ixPWX0iLfOggH++V70G9TS+nE46ZOzOCqxu6iCLsn7yTGL9Lr9jyoFSro3j4M/Y8D5/3tGDhpQuk/7SYDPMVRkLxrs9H1h2EaOuPggQt2dyI1AS8m7SZ6LUJergKqPdU4XJmPRZL+UydMr7yO3c9IO5aMxNR57w0Leum1ekvy6nii8LrtcD2QEolgxgzjcCn0e/Kx92C1oODZm/tgmhE/TiSqPXroLxkwcF3aEUiYdpAeYJ4E7kxilK2/+DqLOxaYHHoU5SvgfZAMM8YN6yVq3m/kI0/aE5ZbDrpGQLt+XWiN2TGKAccyOCrEiCZfB1wcwmjCF1njwQnHFXrZrsa6kIK2Y/RTO7Tb8yO0PlMP5wSrTaUo+OHj5pwQP/b+dsy+qwc1b2Tu+TnqtrG9RnSeS4IVs0YDbYkLvZdt0o7FyLWDgAHGDfu5JtQeaoLx2mIdwz1hge1uMuddUpXUlovrhhkWv86eGx2EvbIIBbCQZhH/BNxinLB+TM37hzKDhQSTjWXUAvN/Wqlbowbhdgppy6hzkRbLTbBj8ucHymDQ9009BjS814TeYekcLguMzbWobTbCFpMWF2P5PqNBOUwYTwW35RlJrpdGYXVQ+ik3nIKcLXAGyuTuLeGYfLWcnUjfH+6F4b0GNPWY4GRieeSCpT+0nJYOstDNVJvyCpC7ll1TF5oOVaKh1QhLHOYkd6kLDYca0EX1KrBEvXdtsEwsZ54lZkzoGyxFXbFPNdBAT4MNw3byE5jl6v9dM7req0XDKSrPQIvqAQdbkDbJFvNzSeFzjU2GnCaTawd+A4wXtg9rYFpTjdZXFKjdfQDGO9JHDK8FbT8qwa5PWe39NpHqchGnRPzjX7KUaqgecRg+5YT2zSTMUN/lhDl0zfpwE1leTE044LjpgPkym7bRYOUsadiUdnztxUrxoDlct+mYVzaEnh67O4jaOhNpbXVoPqaH4vw2lDVSh/cBB01tI8pXGLGr2hi6IQQljvJVZmMDvYxOJGMQjw7vtChnxxdkvVJas2oWTpa++TW8gR5i05N0TCk2hPT84zB4iGSSuRt1x5qhXzWAba/SQFNnAJdXh8ZyBYyBclpKSMkQrDTVOPoOGfEwvwLv//YEStCHksIG+U42BNz5WrRPF6GxNg/WfcVoH/XvLDkMHN6Fkg/N8U2HJgB/68VHZkkVWpl26eolpStE7Wdt5/g9FP3yMPJslSjusFDNn4cbrMWuYgPMQayQbFUBcMUhKhnBkGsH0mI/z9s7+bKToj+G4JGUkcO33RCSIrY2Picjg6//fFbakUpM8QOHi/ni0ui3fWcmpXOEIKlyuccP6Nt4q5SKGY9nsSfQ/dnkeQdRnjMyCvlOu5QOyz1+qIp5u8jllcmCjjkywgeX5BR/9mdH+av3pSRhPc7OWcz3OClxQyyHqL2K4ipfqnc/o988HkcJ0vn3DUbqhxce5tnHPIvabNKOIIj5rOdHQlTZqTP7FnqdCeWdwRf3sbYyzrflMLlHU/7+xF/nPZePCteToT/LT/2ftJMQ8yWf96Awr7t3hsR6J5X3/gt+ZSJ5bMXqlcmuK+prCsY3I3y9pmWx5yUhemiSTHIWthGRWX7oHZ+nmVUsv6ohP+9Pqe2FajtjLXTuffzAX6T0IkK3gzkLxm5z4vUSpu1yGPmUdCDSVHQviJ8x7DYTjd5a5KVc5BtDhfLOYQwPRb/1vym/SPhYyEWhWDxVtSozKu8gr6MXtXsr0XQpvI7mvT9L/1XIXiOmw8PBfo5e3iDLStwRBC887LTKrEUL0gKOEVhe0kM7p41z4JhRkadDQS695urwb4ZW/PtHVVF5FcVXviThFfQywS27ZuuDmxik/+VQy8Qlee8zVVSJrKCCtmNkVAe9n9cZd5tNbmqgy2dtRQ0dybm1txtVES/AJRZx/UWLjiY9VEz+EmLApQaKQNM4DG6bFaqf66jeeWH5vJfKUo+9RfOrU24hxgwo2ri8DgX2c22YaqA2EKRhz1sxXegaDLBiZqywrtdDR+3VOzqCXqqs+hLt/Pqb2w6rzwFH3LOQFewHTZgKGW8k0w6kgWae22KMQqGk1YlII1RO25L5nJNSnlrELBcPadqbRO0i2s2nVckQ9HsBW3iYhiMdH0Fci6gpymk0AXCRaICkWbHfj9QamCVtjh3/r1cTY6nFVL6S5hdOZgtiFqLZNvGd/tZUWKTrDWPFiZZfpFbELD9yhB0fJGYpJMms82TJltJxi/IoXSeVVczWkecq38K0+4BrsP6GXdt+fkimkD1jbfymYPkJu0UYw3L/Kn80hPXiw2fBZeSEOs7DX/11zuLfFCyUAKvNH8mCDW2FhW4HiwaYqTPFdLIA8zfRjTkc9HudCZw2SATJkUv80wWJwmPv4WtKyZS3hBvS6FhhiiLyAcY3pSE/jSh1HJEOMLJTV9ETW/lGOMDIkcgpMuogj7LrDTnNKCLmNdJ6J02phDln5MRZ531l8puAM0j7c34dex/lq6c1Jv+csmBD+r3Ss1RDYyMRU2RTZ8r4sjNhrsBDZcWulfJQ9kmQY331I2AAHe8upO8U82dvSzsCiWOACfAic8E+ZiHruRQF/ubvhFXwOS/fsjQ3UvTarRiX3keGE8b9JSjZG/1WGZGXVWrIJZko8qrRPdSPxqLwU32Kp7Lovxueh2I6HC5hLivcNKICf89Oe9+zYPFxAX4u10Gnrh5wsMfkzRdr+dJvsWmZjarUcPf9KwdB0nnq4NOMEoqn2Kez8IQS1SPv/P292PSQK/CcXnAOLnQ5JROpTALjX9yjJtqvhH57AZWVF66bwTyi5HHeGKD/pdBu8ZOe5HGnLNLITO8mGa8FxpNqHC4PcwWKfFT8Qie8NX9ghCWwgP7HBiGHOwr8ypLDrTE7yyA0obw3qT4wuaz7rphcTOh2sCgO5iHrNF5ct0CY9htm+q+FVkNfn3HC1N+FrlNmcI9csJ3vpfe9MAW68FFjN/cb0PQrw7w7qc+Vcs5Ndd6VUkxTxbjWi4a6dnzttAr77dORVGM19P8RfI0l3BZuDcZHWLl8m1ijpFxb4IrIW4fK2EGddzj3Y6rya9m6wd2vxboSALv/1LP/sBa7ephCILmpBjQK7mITTFNSQsAL+zl2X7Ywd4YlYitfF6aG6QhlapS/2+mgUgnnfkySXsM+5/B1sPKbMaPhubVYu1u8TxxHMrBTt1Gk8TvnnQE0XVwg6CVDLJPA+BfpLhFKKfDXa0XnScfcAOh1DFIfFd6F/SH1Z2wNR/U9Mc1wfyWuv1QsY0And74LlqoKv/XH0KheO4xGVh1d7ej7LGBFhAYBIYcqv/rqdsJKdZjFtIXKoWua1QQV1oZccw3dDgIGGAVVPnqZ9dMi7w5SYfk15kwVCtbTCNlsRNe5SahfY5HC2TD/yACzrxWzm+iVNsFd1IzW3zZj90wTyn5P56DvblZnges/iIZrbqxky2r/3YGu6w+RTY2CLUtnbnwdpa/Qod9TY7NmM9atSQXbIAK5LDczNnS9V4nX9u7Crp216EpmnMJ3VULMjf12JA7BU7CzCiznfiygwLr1WuBicH97p4Mtvuaj4Lls0qpN6GNuqhuVYEaPAJVH+9he6P3vLODoQ211E5oO7YLhCzl5xFi+rntgT9/J82+wy8jUxBD9l3M/FlGo1DRsmjAZ7CaFd+zCInD+i2pk09Bi+pgNWRug9PXnjzgMdtiw9y0tSW2pkbRtFv+yII8cptgitRQLxv2JBps3fbcwsqPv0AE0NddiV6tZVtFY+RRz9vCz7Nw29HYINiwKNi5TP+Qlq+O0GbZf/RSrV68Ov60tQbs0rphO0qA6V6GJlQrBAWb2/lwGYTvdFnYW5h5nlQ/cDdYOpgdRSdcTMMBkQvduP/ScAbV1BnQ1H0DJESNusQv2jXArFFD+IFswsQqKtMIr1mRT59EL+y2WoAK+2AbD+goUSZVAteN1ZJ8kTYi+m6nUQH/sBPI+7sTwTRNM3mb01+ugVopXr8jMRBZ7+1QWMul95jKV60IikMuyYqdrGoeurR/nh77EZ8dVGNpdhvab/rUrgSg2Q3uQKvBXU/Mdciimb8FOctLk54adRlJt0VEDsGEySHxF3o5maIuoEdxsQ+UJoPvPX6L5b+1SedSi5KQHh9vLFw5iuUWoYN5ApFmNTMhp3DGWL3XGg6iGdksqVFIXbjnoglnn66eBB+UZDXTUE9ucQYbyjVo0U7veoHCg7Z/bgY/+jC+PAe11tTCcakJtWRc873ZEePfsBPNoCpOkrChLAu8/lgedQQvlGCkZVHYtM3VonvOCU6OonHlM0d9lO6k7odG8eYLyPoDat5vQ1dqA16oNGGG3SNmuxXJNUrg+64QhSAhWRDgMMPrf5y6vCieOaTFw5CCaThnQ8PoBGMwsQl/OSqdB/YYLGp0mtIIo1w6ktZgAPPzs7CxtnuALtIJXjP8ir+gB5FsEErxUXq3nO092+m0jCxbJPGMtfGEIX3z2/UTGBiSOMHKJmgQt8kseUPNeIFEumMeA4HcficeO4KGSw7dYIll6FRdUQ5a9R5S9Px5WHov8/gMg+eyLKIYhuvIdP1kYkaefLAlb5LfyLXS9kS5yC9ce0jlBlIPHL8aExVUFyj424qvzrLxDXYV8XaA2oY8sRko4D8sr1Ztikmm8dyVPWBxMohDKkpVvKI88P4Q7c8vHPMm1Az8LhoPp0PNYvdlAZhVZGsx6yHRj+A9dNPI1o2K7/5ynPCtX0Gio0kH/L4dxeG7T+Y2AXjjJdit6exxtp0M9b4DhgrlnuaNnEyeXxdD5NipFKzAentmL9z/qxtt+vvvJRriLKlmtIwsiniVmbDCe6oX5jheckzQkpXhftPCwu7fqYPp0hKQeBAWT/cLzMIs3M8zctPsrB9TPh7JDYi1fG8zd99D4BoufiINVSmhiNtPdsPV3ofcLDt47k3RFvkXu8GhKqqC7+EeMBI3GF+Wg8IsxYXFVgbKPjfjqPCvvUFchWxdm7HA8EyLOg3og24kSPPtsJQZJHsJ56AJtg32woBR1/xhNZNViFJkaKCNYP0km7BlLJc8+i8pz1LKEsqQM3hwQpppL360IsAjnEe7M/VIVSv2dXxYQph1IA828r/6O+dFsanA/n5Oxk0bfAJ0hjAXDoqN3BkSUjp85O3fe2bE2vk2IFCaNdUfOIv9rZsEUCy55pO10+EecLgPRyCVVECwaur4byb2+4M+D8cVNMItqXHBf3BmNBpjw58FQHauQ0dBiLF/fczCWs27Ofl4vyJlFZY+zGAi/PITncX8eTHSMd5fJaOFSDFZOPT8ixYd4yLLcSZb3/sFYnZNTCzH2KWfeIr9Ped5BFm+V3DONxOfBxNMO5gcYoWHv5FsGr/JXLVf5oY4yflNBDX/WGXDy2yP80be2UgPM4be+dZQfsVn5niN0LBXQplfr+R6bmIHZy218WUUN32Oic3W38D12Os/tAb7mZfZd6nROs9tOTPI9L+dQwW7li9/p5K1S3j03Ovnil1v4AVMn32mOawIifiKVS8owxQ9UbeVrLixFw2C/tSlgGkkK5qLyGxpsoXKkTi9KUQmNO6rOMhSsE2XTEzIXEEv5CkFv+/kBTkovEx5LC7WlYr7lwgDf8nIx3xmtQiF0Mjtlpz+eBDw32vh9sgMpu5VRIb//9IhQB0Y+qed3aspICV7mvieBMGWwsKqHH6H8XTWf5et3bOLLjl+Vnd5lsTc75eQWQTv4DvsnGTNgd0u1XxmF1bUS6rwCFOQpIzK35fC63WD2ZtTneeSF+yGZ08tsWgokQS7Jgd248SBG8n+P5rim7qJAeCa/Eet+1+238OuG85IZDm8uivZooPSfaokQ9kz++lt69Mf72GSvF+xWOrJEVb7ssc+1mKoaRGMKPBTNPWGGecKL3J+WxrYQzZ7Jf8QJvfHxemxyVLC4nhVBbqe0ADe46xZYbjxE9pY8FLygRmYM9TaVcd+xwTI2jofKzcjbkg91SLdjcUqtvG8dunsDHGfmiKwdLBxg0jzWCHEg32/GYaHAqQKcm0X5G/HNH0fEAyfM/6WAbu6BZ4nBfc2MqY06aJZorIyIaWqkD/KgzV3+wSVhzNhgvquG7oVUEnSa5YMUxCtTyN6uCb1WFmE7SA8wTwjc+Qa0u3Qof16605+bOo0HFWh9I7Gdfpo0adJESnqAeRJgQU3PHRAijv1pHPlfNP9YSqRJkybNEpMeYNKkSZMmTVJYdC+yNGnSpEmTJhGkB5g0adKkSZMEgP8H7A6ps4I61E8AAAAASUVORK5CYII=;" vertex="1" parent="1">
          <mxGeometry x="286.01" y="378.12" width="268" height="19.71" as="geometry" />
        </mxCell>
        <mxCell id="2JQgbApqm6Oe2Ly4wv3b-52" value="" style="shape=image;verticalLabelPosition=bottom;labelBackgroundColor=default;verticalAlign=top;aspect=fixed;imageAspect=0;image=data:image/png,iVBORw0KGgoAAAANSUhEUgAAAFEAAAAeCAYAAABUgfKPAAAAAXNSR0IArs4c6QAAAARnQU1BAACxjwv8YQUAAAAJcEhZcwAADsMAAA7DAcdvqGQAAAWaSURBVGhD7Zl/aFNXFMe/2wQ7WJaCf7QwsGOrVsQlTqSFTVo0tDCs3WZZHesoWnBDU7pJun8iRamTSWyha7thdaCp/jESwaWFSjKoSf9QEsEljhYjOJJOIRELL6AkonB27nu3JumsoqZp/3iff+695757Oe+88yvkNWKg80q8LkedV0A3YgHQjVgAdCMWAN2IBUA3YgHIM2L8z0F07e/C4FgUGSmbIzMTQmA6JVdLRQqR3w+iY/9BjFz5vy6p6QBCM/M1LwKiTxTE3Fayng5TYspJrYZK6gmk5Y4gRs4mAxnaXJSQkuKTpuCxVurxxUjx9ZDB0EzOW3JLkPaT3cA6HgtKQfFYoVpydhTHJxpw9FczjFd9CCKJlbPiS5eo27gTgu8SYP5pLco0yQLE4e7swEhcLl8A4+e9OLe7Sq6ewvVTcJT8gPP1FUiej7IggmSuM/4dgouHb0zPuGOxEJZUxu3kuCw8L03+w5X8la3kuSd2NJRxG8sMZJ/I9c7iEj5lJZfqeRwVO9njPh6gsLqjER7awjo25nvnYvEozZbK8iScVTgkeipZwX0eUqRIEPyRZYZ28ixdLGe55aRm/qBb+nNNGCPXV6xjpSPPsIuFMj5ArttyweQVlswVH44ngbZP6mCUMhE2wYs8bK2D+dmxXBTik274YEbLVrOUMKkogmM8flmNxQ/mDMKhsJxraDlREr0mskoT6jZlTYiZmwheB8oOmVEhRQsTxUh7F9yzcvkCPDcnqiQRuRxgZbpRY5IiwXQQJ3n4YtM6lMxGMXrRh/hsFZqsZiT/8CB4B6io34Wm9Tnv9SAO34URBKZ476MW7NpRBSOfDUwl5APl2FhbjsRkGJqE19WliDqPoKPvLlpMAQRWlWJdNX9M6ZEqwWMibB2UW9+WQz7MkiBXG+s4r0vIy4ecrxKXB6jR0Eq2s34tLd3zkNVgI+9cjrofJMe2VnLFtWXsdDNZhjgR8FklESbn3krazFVevHF4qJGae710I6HVDEXxUg/f7ZxSeK6oz+SF88q3RIgoSM+1WqkQTvaq3xg162WlXlJKYFzFg5LO9rEzbgz0R9g7a2F+j9crSlC2ulxNRzW1Mi2tKucoOonITbHglHDBgSPvt6B2tbau2LYL5f0+RPisscyMtkN9MP02gLG/RjGa6cY5WwOqysT7876xVO1Z3jQaeW5U53nhbN7dh+6Lrej4lluFtQ8RuB6FcpU3lkk+5KBHw/fn0NZkQ0dnHA3GGHzTd6FwHsd3T8mHb8hxHsk7Pm7r3oXr52wvVtNhRqmc450m/DISQX3dJLr/7Z1r9BZGuPN80uymisKOypWwUVRC4erLChFWmo7pCbuabmzjOf3EbRf/YOBwfVJBOXz5GUdIW4V7uY074M3rQPJJU7jfTvYuC1lkWGcRd8m7E14aHk/MhXMGob4dWLPma7j/YadVXRUIuU8hwIWm87OcSrhkxDG6/wO8vfEIQhkRVkLHFMbODAKmbq7WOUXjOZjrO1E9FkD4gRQwkTMj3IdopK4Mwsd3Hj3eh099rbBeEK6eSwrphzw8TiEl8krWuqLP4uQrm+x0yEEW/vnX7o5pgqVG9S7WcVu2yY6526nSYGEPy/GVW16y79nMci4Oe+zkDQVp+EAzbeCzG3baaDik+Z8y4aDmFisNj/rJM9RDwxEReS6ybhdnDWQ5cYOfukHD29lrKzdT474BCqpHhZc2UuNhF3n6B1R7SSMmyLN3C7Wf8JI/4CfvWRtZzM3kmFjY4YtOOswV1UI9br+qo6eXDVNjJWc0P9heFJG6XuqG+3zukTbN+aMqhfhV7n2uPUT5JhNqPuS+Ka/sLAMec594aRLB5EpUmWq4Vyx7ftIvAvq/fQUgr0/UeTl0IxYA3YgFQDdiAdCNWAB0IxYA3YivDPAfKiYSNrS4gDoAAAAASUVORK5CYII=;" vertex="1" parent="1">
          <mxGeometry x="391.71" y="399.83" width="54.78" height="20.29" as="geometry" />
        </mxCell>
        <mxCell id="2JQgbApqm6Oe2Ly4wv3b-53" value="" style="shape=image;verticalLabelPosition=bottom;labelBackgroundColor=default;verticalAlign=top;aspect=fixed;imageAspect=0;image=data:image/png,iVBORw0KGgoAAAANSUhEUgAAAGEAAAAVCAYAAABWtYB0AAAAAXNSR0IArs4c6QAAAARnQU1BAACxjwv8YQUAAAAJcEhZcwAADsMAAA7DAcdvqGQAAAUOSURBVGhD7ZltTFtVGMf/OhYaRynJknWJYqOpg0yDcR8gCm4JRg1xbFmcy6QGAQ0JL5lOSozF6QIjGS9fbDWTOuNalxApzg2WLSUG6RIhQJwty8hKZLYxmHayhLuMUBLM8bn3njLKbnmrUD70l9zee55z7u3T5+U8554+wggkWCdCEIRZ6Sp5mwaqJOnyIR7l5wT/M8JVI1JTdyA9PZ2OKnT/zTsUSDhhndAUtOLevWG0vkiNrBzselKWK5FwgiICeprs8PLWmhH8GBugc0EOnpcliiScoAjN5aNBckVshK67YKVz+Z4MWRCFhBPWEe/oNfo8gJxnNbIgClGdELxmh+WEEcZGO1xBUSLA222BsdIIS7eXYmUzIOpkRcNHRtS1dcErhu5cEK7zdaiurIN9INZYjgU/PD0euR7sEHWyoK7ynQX2XIC4RI1khg2eNrAah5sFpqZYoLee5enLmMloYPU9PjZ108bK1HpW75rh4+OFj3VUGFizi3QiPW99b2Dq/BpmqqhiNk+A+UjvV9RvMts4H74qAqyjuJkN8taamHKyGrWaqYvKWFVpM3N6A6RngPWdymNqfQ1zTvJxxEMr19AvDTBrG3H+sE4W7MqELtgCCzpx51UVesqr4SBx+bS4/lVJQ5Txw3GsGnY/b64CzaFWnC9Zeh71n6uD+62zaNwr66DJoNI33ICRt4fRmBVAyzMtGKJyePC+1L3hhOsBkvah1loMHbd0ZgbZNWiF53YrXtsuyxZlwhRzflrPnFO8KdJfz9Tk0ZorstDX28bMX/dRHMYTN2srtbFbvCXia6dMUOcxs0dszTB3u5mZ2910tRZizwT3lxTx6v2szcsFnEg9ZRSmo0jCD1tbWm8UFDzHKfXVJta3YquL0+5zdI943yqPikv0jUvhY7YDNC7XTOGyEK6nPtLByzhBjAilh202BlmznvQ87lzGOCslxkwI14NTi57A5fqTfREZqrB3FEIopIJKnGqFHhjTD8P6QTfuNOybrwDCKL3G7M7A0gsvL+xlRjju8uYqWElNwBzpSRpJ+zEjFrycV4c08w10l/BaRr3+kSC0WbolK5cyQTjetUNnq0U2l6yKgQakvt6C8h/+QmvBAysJ3dVINzhRe/kGTuylb/ndD9UL9DslV8zjZuZ8MV2oelNIzfSapPQruxDg/cRMH6svssW3JkxSRImRn98m1QXfd/tJTz1rvi53S4zbmGFRxK2c2DJBnsINrMPPBRJ8VglPRWRHU3EHSRmLfE+YGMPgMKDdkwWdhl7dHRZJvDMt7E0BQ198A9WHRxCOt7hw2wMrrbWzX8rATnjQddZFwkxow2rO0cqsdQgHSx9k78bhx1g/fz+I2C/yw/cTnY5mI0tsXbQDJYXQ0vWWk4Q4RCI1Bf/+2Yv7ukwEO60YK+zEucJpfP5JByZmb+LqGTsm3/gKtbkp/IY4kbYVScN+bH0qBb9924GUxsswpXfh4zP9uPvPr3A09UP72WkUPR1l73hZpjF60YO0Q7l4nEtWzJwHF95rx/j7JjTmLbx7O1IeG8KVnycw/cePuLTlGJqOPAFRQ8X/E0KCgNlkDTThMAoJELfFkzWaOERWNOS9+oh9+mnScy4ZmnnF10psNUG0HymhaCvJtklk221cQChuW6joARG/Q0XtTeUAEZWs08JgJ4fE7gARevZu7TILj+iI9oumhWTbBQ4QSfyztglI7KJuAhJOiDvAf6LGBEPr1CDPAAAAAElFTkSuQmCC;" vertex="1" parent="1">
          <mxGeometry x="390.36" y="420.12" width="59.3" height="12.84" as="geometry" />
        </mxCell>
        <mxCell id="2JQgbApqm6Oe2Ly4wv3b-57" value="" style="edgeStyle=orthogonalEdgeStyle;rounded=0;orthogonalLoop=1;jettySize=auto;html=1;" edge="1" parent="1" source="2JQgbApqm6Oe2Ly4wv3b-54" target="2JQgbApqm6Oe2Ly4wv3b-56">
          <mxGeometry relative="1" as="geometry" />
        </mxCell>
        <mxCell id="2JQgbApqm6Oe2Ly4wv3b-54" value="" style="rounded=0;whiteSpace=wrap;html=1;" vertex="1" parent="1">
          <mxGeometry x="359.09" y="160" width="120" height="60" as="geometry" />
        </mxCell>
        <mxCell id="2JQgbApqm6Oe2Ly4wv3b-55" value="" style="shape=image;verticalLabelPosition=bottom;labelBackgroundColor=default;verticalAlign=top;aspect=fixed;imageAspect=0;image=data:image/png,iVBORw0KGgoAAAANSUhEUgAAAHoAAAAZCAYAAAD+OToQAAAAAXNSR0IArs4c6QAAAARnQU1BAACxjwv8YQUAAAAJcEhZcwAADsMAAA7DAcdvqGQAAAatSURBVGhD7Zp/TFNXFMe/28wkcQUW/8DFTBNTrZhJnVtKMn8QRTExTCMKWQZpJgwSBWYiNYt0REdDwiokytiiuM0VTLYUsgTIXKibUNwwrYtrWTQCY2mNM9Rh0iaQ1ozk7tzXC23BQllUOttPUl7vue897nnn3vM996XPMQJxnnmeF8c4zzjxQMcI8UDHCPFAxwjxQMcIMwPtGUDHOR00R7Vo6hyAh9tcZjRXlaGsqhnWB9JZUYHreiuazmihpXGZ7vgAnweecdEZKXdM+PRoGTRnOjAw/dpxJ6y94hksGB7Yv9Wi7LAWzddmjsRzywwr930u+PZqCqeRlar1rMfpZm73bWZQy1imppKVHjIw24iD9ZzMZLIcA3OI0xcOB+vSZDJ5MR8XjXXUxs4VZ7Ps7TImUxvZiDhrTri/km/k67syJj/Zw7yii+O4kM1ksnxmvCsMTx0vs9Tms2qTg7lN1TSW/cwwLLo43h5WKSOfay3CEJ5FIt6EE83HbchtqkHGEt5Owtp1gLWmH3m/1kB57xRW11uBtL1wU+9KfkoYrGfehu6KaMyHjeW4eCKL/vNseGA6ugMHOvPQaVNDKY1ViZKDKmh2mZGyew1SpPPmwoOOWjOydI1QLrXCRK65llBGoJ4Eqd8Fa7eZ/K3BmuWSIQxOtH5QhmanaM6DpH11uPieQrQeQf956BOOoW3nSrjaBshghyt4Uf9uhZEOJWmz3GMSEXDG7OdY4YXbosFxMCPNctmmBmbjzTEbM55uYEZ78Jx/+nivVDI5zeL9LaF5xX2pgma8jFVeiXB8o12sss4irWCvuVq6Z2mH29/HcXexCr5aPgpd5U8T2/lSZpRWsIMZcoJiIbA1biafs0NXeRhCU3cwUeDoTITDj3DOUisneyFrjzhvT+IlSeLXlrL2UWHi9PFUKWOF3837ho+fYQPbT2PZfDo4zGIhyvUhwQ9H+Kp70I52OpS8tUGksijAZYf5Mh3TsqBc5Tf5ceJ2nwvYlgFlZHk7gM8CUz1dW5CFjKXCRthvmOhvBjLmfcPHj7O3FSaSp7xtSmEhqGi2dNLxHRUiSNwIfdc9TtXbEn9Y7Z9twZbjyWi0dUI9+VCpCrU/SIFyxWyh98Fck4s60rx5M5dGXz+FxEwdcKQT93UZgQn4VysKUotgOXEVQxVKeAZJz9Yo5tB6wW9Ue2TokP7VEC4emAwq6W7+ehRZq3B16Bg94tkYQHOhBq3/YTcyp0ZLuNBRshoF3VX4kcaiElZc0yFx1ynkGobw5b4IJqO0rgmucVynMs9ynaYUuWdmWnC0UAVoXsBETlVyPpeTaVWm1xSszzbWkBOqZbNi1UvX6q2izYkq2RphRtr9TN9NhNNn93AXM1AtZegbYe679BH2qdQ90N9Ec0eF9NRlVO114Hw3GdelINnfTfvNVpzq2wv11gVM5CtUyNpJxzEv5Q0/vsFmaI5xkVFh5XIaW38vzFu3SqvQ1VaAxMREFLRRag7H4gTpXPfY5B09sJ7Vo4m+5W5cGwWylYAkLinugM88Fg2n7UAK+TklYT7KwgXQWhVQHynHrhEdXk2thFm4PpW6fZQWcz92QrUzCQM3luGYPh2moiL0rspDVpILpnEV6nRqKKTtzAJyxwTtYS2cr9NYxs2wL1ajXrMMxrwd6FKUY+14MtSfU4qjcfJAry7swJ6QtDwdH6z1uchvSULeQQUe9tkxMGqC+XpGqGwtJHc6ULanAs6taoqFA6Zb9+G+TL4HSZivW4v1VcvQ9nO5X2q4JJUnBNrSup7Ey1+UhCYrr5tsY6IRRcwcl5fG7mbef0RTYKmVsfzWCCrnMe47v17I1rStzMLj94/Hh28xudxUXJpMzP70vrkxMGL+skceJHHht1f/ex6tbcF4SZ+z5XKW/01gT85tm+khRjQ5njgO1n7oNSZTVjPL1PoTfm3SB9ksTD9Vo3BGWHuxmAhemhhkeYYDPTd8tctk8sDKGKMHtl3G5MVGesRRwF1RfG4PZBdHayEVzZlUPAZnXn8WmioopaI1nxmdXtZTd0669oWTBE/hsciiv/9Ab0IeCt+cwN3BXjSWfoibWRfx/Se7I3yN+oR5cQLDPTeRfigPKaNO9Ldp8P4XL+P4D1/jcFpwmZgMhXwRmk33kOz5BS23kvFG0k+4OTGBB6/sRU7qS9P20TGI508rzH02PEzZgLSNKiiCXppEBRMu2Lt7YXEthiItHelpKeF3AhM+eB5SlS4VzPTdQ3v1JP/Z8R8HxgjxHx7ECPFAxwjxQMcEwL/4fvJSSBH8FQAAAABJRU5ErkJggg==;" vertex="1" parent="1">
          <mxGeometry x="380.15000000000003" y="181.84" width="79.71" height="16.33" as="geometry" />
        </mxCell>
        <mxCell id="2JQgbApqm6Oe2Ly4wv3b-62" style="edgeStyle=orthogonalEdgeStyle;rounded=0;orthogonalLoop=1;jettySize=auto;html=1;exitX=0.5;exitY=1;exitDx=0;exitDy=0;entryX=0.5;entryY=0;entryDx=0;entryDy=0;" edge="1" parent="1" source="2JQgbApqm6Oe2Ly4wv3b-56" target="2JQgbApqm6Oe2Ly4wv3b-7">
          <mxGeometry relative="1" as="geometry" />
        </mxCell>
        <mxCell id="2JQgbApqm6Oe2Ly4wv3b-69" style="edgeStyle=orthogonalEdgeStyle;rounded=0;orthogonalLoop=1;jettySize=auto;html=1;exitX=0;exitY=0.5;exitDx=0;exitDy=0;entryX=0;entryY=0.5;entryDx=0;entryDy=0;" edge="1" parent="1" source="2JQgbApqm6Oe2Ly4wv3b-56" target="2JQgbApqm6Oe2Ly4wv3b-28">
          <mxGeometry relative="1" as="geometry">
            <Array as="points">
              <mxPoint x="250" y="285" />
              <mxPoint x="250" y="615" />
            </Array>
          </mxGeometry>
        </mxCell>
        <mxCell id="2JQgbApqm6Oe2Ly4wv3b-56" value="" style="rhombus;whiteSpace=wrap;html=1;" vertex="1" parent="1">
          <mxGeometry x="350" y="250" width="140" height="70" as="geometry" />
        </mxCell>
        <mxCell id="2JQgbApqm6Oe2Ly4wv3b-59" value="" style="shape=image;verticalLabelPosition=bottom;labelBackgroundColor=default;verticalAlign=top;aspect=fixed;imageAspect=0;image=data:image/png,iVBORw0KGgoAAAANSUhEUgAAADUAAAAZCAYAAACRiGY9AAAAAXNSR0IArs4c6QAAAARnQU1BAACxjwv8YQUAAAAJcEhZcwAADsMAAA7DAcdvqGQAAAOESURBVFhH7ZhvSBNxGMefohdCXHuXQUhvloLElLAkEiU13zh8kVYvFoIWgqyCmAZdCmG+sKm9GL1wBen0hTEj2ApDA7t6EdyC2AmFKcJdSGxgcEZxE4Wn526/uU0N9+dFTfzA7nf3/d3dnud+v+f7u20fErDL2M/aXcVeUrlCTtdUZGUFVvWdAyYwHTQkgxwdKQn6jx+CwwUFUEAf64jE9Cg5mlQJdC78hIWnDcZRZXGR0cbI6ZpSvvppexHKi/OiAuP/SWpFgWl3B3Q8V5iwExKIr6k5VwUl+VElxr9PKhyA0e4mqG19DKGTnTDQdIx17MC3eRBnAfIrS2DLFbr7bUXFOb8be245kB/y4ZxK0loIhTEe7e08ej7oQnZoSwK6bzRiTYsTfVL691MnHchxHPKTMooTLnQ025EfEzC0Rm7OzklARm+7DZ3vZFRVSm7Mhlw1JdduR48UQnmmB2u4RvQsstPTRJV86GwuQ+sNNwpLGlPTR+zlKCkzmsv1uFTUfqko9FZQrK6tScnDNuRnEr4s4DSeiPXJHB0E0WnWb1aBLinanSqhgAf5CzXY2OVBMcTEjAmi6yzFYW5Fr8IkHRbrpqSC6G7xoB5+DHmcRmojCQ2D4y50jQdpLxU0DL1zo72+DG19PgwuMzlbFC/aKHjzQJAJjO2T2oyKU7f0keFRSHum6NeeQK7eiWL2JZjERj0lzigiOgAc7uB+X0F6Sc21KihNXgpSwAR1Dz/Cwm0TjNpOwZUHfpB+sK4skb/4aNsApYWJQUVA/qyvW9tZ+noEIutsf1YEfxigylJEIcaIgDKr0DYV8shy2+DRq48wWK2Ct60WmrpHIUD3zJwwzM/SDSzlUHiUSToREd4/oza/c5OlL0+hQzeCardRV/KwlYbTjM5P0W6DRQ/a7gkp1tRWDPdrIcPI2P00FLooxmYvJvqNNsOjmWJtfRHaVFOs0Gq6BKoI5jCcNW7fa7rd25MdJ0Pi65QLpxbTKzrVbyfn64nX+bKAPdUUd59oPOzknx6/A9B/+T4oZ+rANC/CEccglL+5BlffHoNL500QnlmF0/290Jw0l7OE3igmRlzg/lICNx1t0GCJT/S/Q69Ud67D3e8WimUFpicUsHQNQHdTEU14Qk8qGc1YdDVamTeghU1VM51wKaLKODXkQMeEzIQUMOKiWNlhjL0/XnKFvaRyA4A/j0d5KSj0M0wAAAAASUVORK5CYII=;" vertex="1" parent="1">
          <mxGeometry x="399.04" y="275.02" width="38.1" height="17.97" as="geometry" />
        </mxCell>
        <mxCell id="2JQgbApqm6Oe2Ly4wv3b-63" value="да" style="text;html=1;align=center;verticalAlign=middle;resizable=0;points=[];autosize=1;strokeColor=none;fillColor=none;" vertex="1" parent="1">
          <mxGeometry x="414.01" y="320" width="40" height="30" as="geometry" />
        </mxCell>
        <mxCell id="2JQgbApqm6Oe2Ly4wv3b-65" value="" style="shape=image;verticalLabelPosition=bottom;labelBackgroundColor=default;verticalAlign=top;aspect=fixed;imageAspect=0;image=data:image/png,iVBORw0KGgoAAAANSUhEUgAAAIEAAAAdCAYAAACNBA9oAAAAAXNSR0IArs4c6QAAAARnQU1BAACxjwv8YQUAAAAJcEhZcwAADsMAAA7DAcdvqGQAAAjESURBVGhD7ZsPbFPHHce/myrhaXUcDQlnY8wRpE1Hs3ig/Nk6FouRGSEcIzVNyposHSDStU66dQkaCrM6EpjShFbgpBJJCVvSSFttVBQnGrKhFGcTkZ2JxpGoYqQgPwZTPIFkI5CNQPrtnn2Bl+SZOI4TmpGP9N69u3vvcn9+97vf7875GjGwzFPN13m4zFPMshAsM10IIhCGvAjxWKoIDTnhnVOhAbhOe1Jej8UjBO+QwHpzaTBNCELwHHfCx2OpQDhdgz2D6chW8YRJ7oYQComXXFepUfhdFyqrbRB4ytLCB+fxpSPEC7ocRIZbsac9G+bfF0DB08RZbq9OQ9q312DNGnYdHJTtLEX+PrS/9An2vOdZMjNqqbJwQhDxom2/HVub90LLk2KoYey8jdufmaMxXW42piuJSTS/MmNHfx1ah5bFYCFZMCEIDLSiKX0vyvMf6QApwriX3dUo0mpiCbJoYfy1Gq1HrEt0WVgaLJAQeGE9aofxF1shP8Qh+Dx2Fpaj4PuxlHhotlWh6mwTrMM84WnnQQCeU62oOZa6ZXJhhGB0ENZRHfQb1TxhOj64T7BgZyFekFcUj1ipha4kgM7zHp7wlBIS4Dy2B8VbG+BWlePwb6R21vxITAhCXtjMNagx98Bzi6c9hM3qQQ+EuzzKEL50M11QgBfW8oTpjLrhZIGuIAORsz048FYl6o/Z4ZM1pzV4nglT4OLYE10ShLNtqH+rHm39vhkzMHLNA9eXC+QL3PLC/l4line3wb/hTxj4rAu1P9fEtaPkiSAwKPZzCfKfS8NzPypB5e864QrwbHHb+BETZK1qITePRbnjppaqRnIIQXL8UUnKl7vJz7NEwucbSKlUUouHJzDch9h7VVZWmjz+v1ZEv8nSllKj00/hO2Ea+5ilZdWR4yZ/ScKETXyf5QV5wiLjt5nI9OcRmrjcTRXKLGp0hXmOiJ+6jdPbK/ZZ/PYnQvj6BeqoNVAeG48+7zwafmeMut/Mo7xdDdRtv0AXXOyyd5BpexYpX7NGx3JWIRg5WkoWr/gk5rHGZrXQSDQnhruZFTZlgPh77zhIvupMmN5h+cotTHAknXndyjpYSZvapaVzLjay9yvIep3HF5ObfWR6sy/WFk8LZbE67v5UMryy9U5eCILjDrLs2kJbdlnIMT5/qRfHr9ElV06YwvdjT7MsB164x1+FMZc9XnXgk9PMXq/RS1w+lt/PdMrmXMlmUAThIAvU6XFU1qQ98DaqZDwHr1fApJZ6yDPie3b4/xOLLiYhjxuaX+pZWyJw/b2T1a0KO4oe2TohtrSJJm7R+uxYQpKERu1ofT0flUf9yG0awLmTtdCvnZvSn0kAwuUMaF/k5dwNIfIg9ghmUSieiT3NIgRaVFvKoha+cNHO1nEtyjdLvP5rV+AeZeNdpJV4AQEEPuePckzaAy9pmYMo4dpYtDOhVs1xvZNwy4n6H6YhLW0uVyVsN/j3Mqi2Hca+HzMhjLgx2MvEs1IP3UqeyfBd6mT3MhSuT95M83UUY81uJzIP/AP9lmroVqfK5FNDX8lc7O3FUVtA3KBb9a0SdF7h2ZwEvQMBLhsbutxyFIlagRO6HJsF5Ruls0AN9Wb+KENgfITpDzWKXpzqPAq+mPWvW5eZvNW7Uo8jI7dx+/Zcrl6UrebfP4bIkBOtTAaqtukkQso04RkWbNZBG88RSoDsN87h3yf18B/+KUreZgbbjRQ5f3c9aDsWwN7OD3Giqx/9A+z65wlUP8/zOYkJQcALF5vd6pLCKbt/8rNAgW+ks+BOWNaPFa7Y2H0HtFMqwoSs38VCPcqKZHYWHoglGZH5nVj0SeC7ZGV3I3QbJXpKVhMmhyrXiH3dw+j9bSZGzYaoN+C8Oj+Pw3uiBYp321GVmw1tkQ468cqdKa2JCcGDe7jHgsJ10qbGmwUqrPoeC679V/ZMQK3WiXekS3X+VRfsZ4GCd80ol3ErAzfEIy0NVknU8GJz74FoqbDBlmgNeU04P1Rr9ag9eQ4DTbnwt+9B8eutsI8mIwwBXLlUiEKJ5pYiPbhLTAieVSGDBaE7jz4U/maBRXYWKJC5jg30aXm/XrNRNCzdGLvKE+760NPcBO/OLnTVaWWXggnBzYQtG5mpWiqTYMWzog4MIjzZBSEPOo/M3x6Ih2K1DtUfnMK5D/TAGROKSw+gZ3iGyfwYFFCttKPvTGCaRg7Bd6oepl7JWXHMSZhEZp+A4//URDlZBjIdslDDLgOVbt8U9fUbzkt9Zo7XQpuUBuoe5/EphGnkeAXlbTdR49EGqtDmUMVRdxx3UsRP1tfiuI6LibhfwnzrnKoGshyqo9JyA21h7Vcap+6bxJj/PsEMgn5yHDdR6csm6nBNsF5MAMFBdT8T3fEc2mI0kGF7HnNxs8iw3zGlzgkLQZRwkIJBdoXDdOEPYuHxNnBGyPITJVXYHtMNvKxJXzUuop+u3MT3Kp48YbH9QTYE491kiLevsRBCMMn9CXLbWsjEJk5CgnA/TH4v3yRyuWns5syvZhcCgQ2CVkk5hyR/dHKDpDl+Rfwfl87YXUyG6G5hCspJnjC5jxgoK6uCrA81G0trFjVhvA2sBRSClDMx22YRMy88VvSw9VudvoKv1wJsBxtgzzfj/Zr4hxiaV8wwBz+CdXjqijQ3xNNIAeb95fO2vpNnFK6DLmZmZUDFjdnIcBsaDk+g7OThhNzLrzbq2Q1D1TotCvL34Y0fBOEatKP1VQNaFGYM2/eh4Jv8JTkUWtQ2G+HY/xEbyuQQ/tKEvpL3URvnNwmLgwbZO7Uoq9djxWUXnL31MOx1Y2vfv9D1ypMTzZTCdQInjk0wMUIOW0f0AGLkekIr0UNEg7L0MctGPMKeFjLsjR1wPHmC5Pf0UfdxKzk8YxSczY5ZUssB0bR/Pokg8IUAxYb4P/lKBvHXxv71zDVMuFDmxnzuR8ZmbUrrsXiw+n8RgWaDOu5y+VVi+T+Qlkn07GCZ/2eWheCpB/gfx/tX8FSDaawAAAAASUVORK5CYII=;" vertex="1" parent="1">
          <mxGeometry x="378.16" y="490.59000000000003" width="83.71" height="18.82" as="geometry" />
        </mxCell>
        <mxCell id="2JQgbApqm6Oe2Ly4wv3b-67" value="" style="shape=image;verticalLabelPosition=bottom;labelBackgroundColor=default;verticalAlign=top;aspect=fixed;imageAspect=0;image=data:image/png,iVBORw0KGgoAAAANSUhEUgAAACcAAAAfCAYAAABkitT1AAAAAXNSR0IArs4c6QAAAARnQU1BAACxjwv8YQUAAAAJcEhZcwAADsMAAA7DAcdvqGQAAASUSURBVFhH7ZdBSBxnFIBfSw9b2kFByIS2RKkSQysOSKrQLi4q9RJjoIs2dINQih6qKQR7spWWjYewp3TpobUJQVNougsVN4eyBuyuB8vsQXYWWnYFZUfSsFNS2IGVMTTw+v6df3dnx5nEag9C88HMP+/9s/+8/73//f/b55CAY8rzvD2W/H+M039dAUXnwoHQILmUAref/GfGqUtT8NFaI7Q3cEWFXR10nV17XGFFhJ7XknBpIgoq19TBEuKoGKkQDvSHMc1lkwIujwsoCPy6Esci77GTv+XHgWsyGlyucHTjjDSG+r0YStmH5pDhzLihW3mucCKN4Xe8GFyvH+PIxhWiARTeW0C3T+d/oH6hDUMbXOFC/rZ/3zhHNI7NWMBAtMBlO0WMX2FhncGEi2OrPFzGSTaJFJeJoyVEZg0iGR8MdolcYScH8g1qLvbAGY+pcaVJAt95DeZXU1xhz1ZdgejsFEzNLkLqL66rokNuLQXqLhcJ9XcZFOiGM69zhZ2MDCvU+LpPwt69Rfjs40vw6VcxyDnuHc1wmiaprWdrmcs9iFiSMTQWxLhKofiSQmGLv7E6U17YVrfLc/TeWITy0hlzvQnYJvkxuJJHo2Rg9jbp2qYx/pC/ZKG8fgXq42ld9ZxyIwSe6VkYPLUH+jYpMhoUza4ymVSE7hMgnTZltoGqm9Q0NYBzxMjTqRi13TDx3fcw+24zeF7yQHvfBRjW5uHqHcV8zYL4ajvdC6CXTJkbp4C89T4Md9Ljdhx+XAKQpgZBMjsJ6r+rAfR1WjbZPTCY9WIj2Pddk8p6+wTG3tpvvqKoND0bL7D3YpB/YIrcOAkmwiMUdVpH6zFaJxKM9tVMg51NkDNkR69UfsdEA+0X/uhEZb29LdE5YGEnS58nxAaXSdWwZasKySgN2TkKvcyLHP03uTzgaBdzewURxD7+6IC2lSZ/i9D7Zm06DDVnZqOvtcVlOdSoN05TIEneEM/3WEJKAdqYp/sI9LxhHc4DLzZSUzIowPtRN6N0v2BZowya/N0ktYMw0ltvdJnHbKRhaHnFFOuNe/wIHlHT02r9Ia23n6np84FUF58GOHGKmp0/HasKUfSxOzRaY7edhNg9SpEvZmHUYfvR/sjRvRlONJlyvXEvN8BJavRSzRfqnTCE9603hgdaWsmAJcu+ZKG5iyWUDFmW+YzdHCxeuwrKxZtwc1pyDGlBlckJ7dBS6TR3lBr5nyaxo20IJ+fCOPPhEPrPect71cyqw/mjhNErDOHCFpfrMDD9TQDPnpvE4PUZDEgdGLguu1Ym9GWMfCCg9+tabeN8thpFLBbpMgxMfM7OxtrGWM/TzlaCj2X8zWU3ymerF8MKl4macSp1SgJ2zFnqqvsRDJDXvA61VgWnauIwOFU3VePMo0PAgapbyc3jbSj0h1AucZUTT6vnDoRZz9nHqBpnbLBqNoiRZAITyWUMjXbg2csLmH2SYRznSvjgHKwSLqQxHv0WF2IJTN//d55gieR/QvjdYBMbGo84LgvnhDgkxfU4pt3T0YEiZlfTrhn87B//YXlm3GE5xsYB/AP6IHkn0++AEwAAAABJRU5ErkJggg==;" vertex="1" parent="1">
          <mxGeometry x="437.15" y="607.05" width="20" height="15.9" as="geometry" />
        </mxCell>
        <mxCell id="2JQgbApqm6Oe2Ly4wv3b-70" value="нет" style="text;html=1;align=center;verticalAlign=middle;resizable=0;points=[];autosize=1;strokeColor=none;fillColor=none;" vertex="1" parent="1">
          <mxGeometry x="320" y="258" width="40" height="30" as="geometry" />
        </mxCell>
      </root>
    </mxGraphModel>
  </diagram>
  <diagram id="FICKwxTKqw3yAiMEW-wJ" name="Страница — 2">
    <mxGraphModel dx="1056" dy="547" grid="0" gridSize="10" guides="1" tooltips="1" connect="1" arrows="1" fold="1" page="0" pageScale="1" pageWidth="827" pageHeight="1169" math="0" shadow="0">
      <root>
        <mxCell id="0" />
        <mxCell id="1" parent="0" />
        <mxCell id="eztBXDnty9-kr-WnthjE-1" value="" style="edgeStyle=orthogonalEdgeStyle;rounded=0;orthogonalLoop=1;jettySize=auto;html=1;" edge="1" parent="1" source="eztBXDnty9-kr-WnthjE-2" target="eztBXDnty9-kr-WnthjE-4">
          <mxGeometry relative="1" as="geometry" />
        </mxCell>
        <mxCell id="eztBXDnty9-kr-WnthjE-2" value="Начало" style="rounded=1;whiteSpace=wrap;html=1;arcSize=50;" vertex="1" parent="1">
          <mxGeometry x="359.09" y="20" width="120" height="40" as="geometry" />
        </mxCell>
        <mxCell id="eztBXDnty9-kr-WnthjE-3" style="edgeStyle=orthogonalEdgeStyle;rounded=0;orthogonalLoop=1;jettySize=auto;html=1;exitX=0.5;exitY=1;exitDx=0;exitDy=0;entryX=0.5;entryY=0;entryDx=0;entryDy=0;" edge="1" parent="1" source="eztBXDnty9-kr-WnthjE-4" target="eztBXDnty9-kr-WnthjE-21">
          <mxGeometry relative="1" as="geometry" />
        </mxCell>
        <mxCell id="eztBXDnty9-kr-WnthjE-4" value="Ввод&lt;div&gt;&amp;nbsp; &amp;nbsp;&amp;nbsp;&lt;/div&gt;" style="shape=parallelogram;perimeter=parallelogramPerimeter;whiteSpace=wrap;html=1;fixedSize=1;" vertex="1" parent="1">
          <mxGeometry x="359.09" y="80" width="120" height="60" as="geometry" />
        </mxCell>
        <mxCell id="eztBXDnty9-kr-WnthjE-5" value="" style="rounded=0;whiteSpace=wrap;html=1;" vertex="1" parent="1">
          <mxGeometry x="280.01" y="350" width="280" height="88.12" as="geometry" />
        </mxCell>
        <mxCell id="eztBXDnty9-kr-WnthjE-6" style="edgeStyle=orthogonalEdgeStyle;rounded=0;orthogonalLoop=1;jettySize=auto;html=1;exitX=0.5;exitY=1;exitDx=0;exitDy=0;entryX=0.5;entryY=0;entryDx=0;entryDy=0;" edge="1" parent="1" target="eztBXDnty9-kr-WnthjE-9">
          <mxGeometry relative="1" as="geometry">
            <mxPoint x="420.01" y="440" as="sourcePoint" />
          </mxGeometry>
        </mxCell>
        <mxCell id="eztBXDnty9-kr-WnthjE-7" style="edgeStyle=orthogonalEdgeStyle;rounded=0;orthogonalLoop=1;jettySize=auto;html=1;exitX=0.5;exitY=1;exitDx=0;exitDy=0;entryX=0.5;entryY=0;entryDx=0;entryDy=0;" edge="1" parent="1" source="eztBXDnty9-kr-WnthjE-9" target="eztBXDnty9-kr-WnthjE-13">
          <mxGeometry relative="1" as="geometry" />
        </mxCell>
        <mxCell id="eztBXDnty9-kr-WnthjE-8" style="edgeStyle=orthogonalEdgeStyle;rounded=0;orthogonalLoop=1;jettySize=auto;html=1;exitX=1;exitY=0.5;exitDx=0;exitDy=0;" edge="1" parent="1" source="eztBXDnty9-kr-WnthjE-9">
          <mxGeometry relative="1" as="geometry">
            <mxPoint x="420" y="230" as="targetPoint" />
            <Array as="points">
              <mxPoint x="590" y="500" />
              <mxPoint x="590" y="230" />
            </Array>
          </mxGeometry>
        </mxCell>
        <mxCell id="eztBXDnty9-kr-WnthjE-9" value="" style="rhombus;whiteSpace=wrap;html=1;" vertex="1" parent="1">
          <mxGeometry x="350" y="460" width="140" height="80" as="geometry" />
        </mxCell>
        <mxCell id="eztBXDnty9-kr-WnthjE-10" value="Конец" style="rounded=1;whiteSpace=wrap;html=1;arcSize=50;" vertex="1" parent="1">
          <mxGeometry x="360" y="670" width="120" height="40" as="geometry" />
        </mxCell>
        <mxCell id="eztBXDnty9-kr-WnthjE-11" value="да" style="text;html=1;align=center;verticalAlign=middle;resizable=0;points=[];autosize=1;strokeColor=none;fillColor=none;" vertex="1" parent="1">
          <mxGeometry x="414.01" y="540" width="40" height="30" as="geometry" />
        </mxCell>
        <mxCell id="eztBXDnty9-kr-WnthjE-12" style="edgeStyle=orthogonalEdgeStyle;rounded=0;orthogonalLoop=1;jettySize=auto;html=1;exitX=0.5;exitY=1;exitDx=0;exitDy=0;entryX=0.5;entryY=0;entryDx=0;entryDy=0;" edge="1" parent="1" source="eztBXDnty9-kr-WnthjE-13" target="eztBXDnty9-kr-WnthjE-10">
          <mxGeometry relative="1" as="geometry" />
        </mxCell>
        <mxCell id="eztBXDnty9-kr-WnthjE-13" value="Вывести&amp;nbsp; &amp;nbsp; &amp;nbsp;&amp;nbsp;" style="shape=parallelogram;perimeter=parallelogramPerimeter;whiteSpace=wrap;html=1;fixedSize=1;" vertex="1" parent="1">
          <mxGeometry x="360.02" y="585" width="120" height="60" as="geometry" />
        </mxCell>
        <mxCell id="eztBXDnty9-kr-WnthjE-14" value="нет" style="text;html=1;align=center;verticalAlign=middle;resizable=0;points=[];autosize=1;strokeColor=none;fillColor=none;" vertex="1" parent="1">
          <mxGeometry x="480.01" y="468" width="40" height="30" as="geometry" />
        </mxCell>
        <mxCell id="eztBXDnty9-kr-WnthjE-15" value="" style="shape=image;verticalLabelPosition=bottom;labelBackgroundColor=default;verticalAlign=top;aspect=fixed;imageAspect=0;image=data:image/png,iVBORw0KGgoAAAANSUhEUgAAAGQAAAAfCAYAAAARB2hWAAAAAXNSR0IArs4c6QAAAARnQU1BAACxjwv8YQUAAAAJcEhZcwAADsMAAA7DAcdvqGQAAAcoSURBVGhD7Zp/bFNVFMe/GpPNmK4m/FH9g5TgsoFKKwQ6FWwjkBETNvyxzUXm/mAOg7IpbiORshhoFmGFBNaZyISoDQbSTZTOaFZ00JnMtBDcayKuSyR7RJPWaNJHIH0EyPW8H93atVtfx2Ia0k/y3r3vvPfuPfede+85p+kDjECBvOFBtSyQJxQMkmcUDJJnFAySZ8zDIAL4i154B4PgBVVUQBs3BQiCdIiqIJ0cDcKjf/tq2IPFQMiBFa/2IazeKTAXUXi3l6Dk8cVYvJiOfSM0rTOTk0GEQSeaTltRtyoC90E/cJFHZHZjF5jCgOq+67j+U6d8ZTOVQy/X0snBIFH4BtyA6RkYV9qw3dmF3qHdsNFiKaAN/g+OzgZYzUZFkAHtBhHHMfYNlS+aUF5sROXbLWh8bjY7F0hHQDjopbIOluWKJBPaDTIRwggVtieWoLAo5kMYgeNU1Fdg2RwfMKtBhCt++Ef88P0cgLTg9EJYvvaPhGd1TFkRabZcVNr1j3CI5uqHBB6+ky44Ou1wDXCyHiJFL7k1I4A7bcfOd+xw/5I+EmncwWsL6CBDAfiosFkeg3jODfs7DWg/6kV4RtdZDCJi8koIoV9D8A1Ly82MolhYvg79LaJIeUg7d6LwH23AihUb0e1V2g39Hs3pQ4ohF2pWNyFgqEZr+25UP+JB0+YqrKDoxXVRfSgrIoIH34V30XZ0vVKMnZua4L6q3pIQ/eh+tgobT4VUwb3DX1Em9HhvN9ywodN5HM2LPFizuh2+f5VnZKQfF7MTYWebdUyn62YBVZIzN8ZYT10p062nNmKqLFe4HrZBp2OvfT6pCiQmmecNSbdt7GxEFWWD2nntyJhcjfRvpXdLWfdl+VIh2M1KqZ+27+er6ExibGiXpOMG1h2MqzLiTw/bSv2s61V0kdDoQ3ha3lTUl2P2+GAuRHCftsH+A9CytwWWecUCPNz77AgaOtBSn6xFDBGeihdtMBsUSTa4YBivV5mpxmPoFK18UysqVyr3JDhyvlGaxabyhQpaEv6jFY1r0h0Ix/HUn4I2g1zj5QTQTOGaxjGnIgbg2ReUq77DtajaUqUetFVMyOKsiCNuOM5Rpd6KiuQx/TWBAO0sBqtZ82Qxv9WL2qVUueqHl9o011ppM07AY2KUNhcDyaRnFoKE/3jenPr9ro1DcgQw6KfzEnWlzEl8eA8tt3tYwrRFrKP3dTs8bDIWY7GpI2n5ZmHsEG13GXRI6LZnWHtbCSY/30zvrmM9nCqQiA2xNknXvRdY7i1mJnJmG/VD22JQFago/evY5qQtWNMKifKSc7uHJXxXREQqjUYY9TQbpg6tAXSUom5pUafrEAp66FyLiiepLTGKsObIKApu1E+zsxoVJlUkQc63j4raVcsWLLznJ/rpvAXmMuVagYd/kPpHJWqt02tbg0EoRA1JL1qwbL5LeKmZ1CHuyFfzwACjPBg9Hk4J7cIYGyVDqf5DOO/EZ7/dUu9l55b06PNLUrY67rK8ucA2wyEJV31wH3VRiByF8BcdqlwLBoNNOuPR5LmkbpeWjzpRl/RdNRhkEtwgFa8sm2OPDsJZUoKSEifVMqC34s2PLMAXZ+FLHgmFwUF55tN8HWig90vQMJBwb6mYXuigIQmIT31vAf597XBeoWrZY/I9/6AIqxwxZNFHphj6RVTE4tNh97V+9ByZ6T8oIPmkAfZgORrfa8GmiAOLl++BP0nNbLobV1WSjwpgPBFa3wzDfcABrv4ETrSZU1ZidoOQ0+SoH7OlLNUh5UQxzG1f4+f2COybatDe5YKrqx01L+9B4Ja2jaHY2oEBpx6u1p1wHLVT7vEBwtUn8ePHtTB82wfHh+/Ct74D1dJH1oQele+fRCPvwM5WB1ydTaja5caE9E3rLShXHoJ43oGaUxVoViM7wxIKbKTf83L5GKZm9DqLp3RvWFsD31Nf4VJfbfokV33J7Izulx3Sfn8WFyfH1BrylNvxWR164ICObe3PkkzElYAg5e0bGdrTqg+1lNAnPXiJME9jap4gOeLSA+mt5qT7bfU6A5kN8k+AfXnkGBv6I65EAqX72YW57EGJlDSQmVGEdpSB6xo9VFsAsuozyc7ueJrpzPtZYGpcqg5ryYhTsgDrpnamIzglQZYNFicDqrKF1D2DQRJZpY5tOzMmd7YhaYbcF6gZsm59D0uMbLJ/G2XnMzJpMtyX1UmG5aX3tjIPH2cXDh2benchyeBDilCkpw2S9uwtd71w/9uFw03TadN9waIymNdY0LHDhNgIRTuHa7D50MPovPQdOlIyaSPq9nZi3NdPAQP5qeEiVNZHMDbsRnAphbHqUwvJLH+Uo1D3nA8hsQzWlyi7fEgV309QhMedH0EgWoRyUwXlIobZ8447IgQKPvSPSBdUp0hRew6VG4V/LuYZmjL1Av8fBYPkGQWD5BkFg+QVwH/x8Br45qqK7QAAAABJRU5ErkJggg==;" vertex="1" parent="1">
          <mxGeometry x="389.09" y="110" width="60" height="18.6" as="geometry" />
        </mxCell>
        <mxCell id="eztBXDnty9-kr-WnthjE-16" value="" style="shape=image;verticalLabelPosition=bottom;labelBackgroundColor=default;verticalAlign=top;aspect=fixed;imageAspect=0;image=data:image/png,iVBORw0KGgoAAAANSUhEUgAAAJYAAAAeCAYAAADO4udXAAAAAXNSR0IArs4c6QAAAARnQU1BAACxjwv8YQUAAAAJcEhZcwAADsMAAA7DAcdvqGQAAAmtSURBVHhe7Zt/aBvnGce/G4NqFMWDwBS2MWeZiAdLreC29taYiDidS0H2aN1kpdb8h1MbUjkhib2FOQnL7BY8xwFHdkZs/xHsBFKkkiC5hFmFRnLBRRq4kjeyKJAghRSskYAENlJp4N3z3r1yTtKdZCV27Lj6gHx6n9NZz73vc8+vO32PEShRYoX5vtiWKLGilAyrxKpQMqwSq0LJsJ4bUgh/5kP0kRiuC2LwXQsgIUZKlmFYKYTOW2E9H6J3G4zFBBIJ/lrDM4uF4Jl0wzMXEwI1UgictWIosRXlPxCidYEBNT/zwdruRFRIluBVYV7ujLMmvZ7p9TbmeiBkzz1BZt/Fz0m8PvQL+bMlGehne3d1M4dnhLW+bGSdnrjYk0nE2cp2HJ1i6nvXnsjFJra3z8+SYswpYFhJ5u+rXVqA2sGgkG8Mkp5O6bw6r6/FksnGbRzwM+9peX4tFyNin4L7LtZqbGaO+2K8LuHnUst6Zh6bVn7Duu9gzbvszOvpZkbJuDaS16LpGOYXDS1aVAieJeSt+Jxyo44Hxpn9govdWhD7lpAvbONpb4Y3WI9ELjUx/dvjLH1p5DWs4GAta3bO83fMXrfRvFaEjTfSOdGFsxZnFLloofm0sPE7QqBGfIp16o2sPyDG65kHLmZT6KqdvD90Y8zZiMMWAw1MaOlqp1QNCA1fgueh9Innm0QYczdo+2YNnd2zJoHwnI+2lSj/iSxRIzHjwSj2o/olIVjPbDbB3BDD6OcBaahpWKHLZxA/0oJqnTwue/OPOFxJb2Kj6P84JAtVSSD08Ql0fHACE1/mFqKJmz4E7q19fZma9dGiAe1V5UjMuTH6URespPPoZFi1fF4RFqMITPvgm/bAx+d/+zeIBvjYh9DXuXMSniUNG3Ziq1gDVWI+TJw7ga5jvZiYlivLxE03ho51oOucG+FFSVQc9zzax0vnoDZH5dheZUBs5pZUIaobVoa3SkNe63iL9C4w6IBPVWEqi/9ug3tzOz56S4eONw5g4q7YxUn50P+bBrx+ZU4I1o7wzWn6W435a93on9uCNzpO4fyRCkw3v4qm8/kunKcgHkHwqznylP/ENJ+CcjICPv4qjDiyrSeK6E3aVJbzj6mS+tcZWAf+B9O7f8ap47sR7a7Fgb90webUofHEIVSGrLAM+IprE91zoqNvHruP0/GB3OOjzg68bumF52shULClvAa4MYcwtzo5ImYSHN7Lmi6pVCiKMr1JrYIJ2VmTyMHmnc30OYq5s9JQRpGw5iVgZ5ZGyxO8etjUsgo8kV/pqZLxKQ/ws35epLQ4GM8sV41ZeR7k/FULWZfaYY0McMHLut97nCzTjDNHCz+nTjZFRcD81VZpnfRFtSnizHUwXaDR9xvp+DaXYi7Ed2jlpTM99J1yBZtrWA8oYTT1MK9GGRJ322SFjd3Mm1XFBMdszCElo7Rwb+cqIFdhBRLWZ4GUFJN+XVNZ1Zaf9Sx3MRaCbOSghTWfnCraCCNXVC66bJJkOKSLlvHFr3eznoy+V5buUS8bGRxh3mIqXlr77gG5H5X09UjGb3MrviM9byc1qlRyHNw2eAKfY1i82aXurQRJsuS019L6nGiqZlaQEeZ4j44z9q9JFaYk+Xm3pH+O5ySPW0vy/J5EZukCE1doMfg/5MeRZ8lnvbzVs0xdJITuqr2wokky72kj6ZjVXpI8kp61XtXQSWFYmTnWIiW0gxU49JZWVCd01Wg50ii99fxtAj6VAB6ddsJDOdn+PYp6i6ow/yRt361GhSxZM+T8qhE1vy6TBYLQFw6EUI96SkILUVbXhgGrmXKZNtT/VAiXRRS3eOJOuZMh8+sz2fxjzdxKjdhtP+luIt2LOUqDlB+es1QIWOth3ixkRGjWQ3/NMJsKz0+GYUWvDSF8pB3mF4VAA4OlDX/i/zt2BkOfZN8liiE0Q6W0gRaOV5FpbvqlKmxf1a9y0tRsUjd60fD7hid4UVJZsKSL4vYMJeeVNdj+cyGSCGH6Csl/1wjzNho+DKtWaku8aEL7PyZx+bgZ+ewjh1QEYd7m2FOZ/wLT/RA/ok1iQVuH1GJ6H1XiM27a7kbldlkiQecQfpLW0H8DcNCmsa5GcW5i3gy7YeLzo8Yjrk8jtvIWinBiUkzvMZF7XmZnXeq08lCwq5/5MwKuSPCyEuB1l19l3x8UhUU69PCUYFUak+lwe6VQyBIFRp/6fUxeYPE8Tbq/KPKxzESbh7PmzPkWeZcrrJFAp1GEtCUK5VeEXLBR7k0fWPJYsU/HcObuKN75xSZs2lT49dIH3C0Sc72wf6q8M69DGXef8eTjMpVKWPtgAWt/VgjP2V6V6S9i0RD5WrMcBhcDmJhpxP5Xxc4VJHYnSL4RMP2yUMgyoJx7/Lmo1BfKJIbbAYqnBhNF1DIkPnNiiIsptqY9TOLLIYzpDmP/0nwn4BlsQNepLlhbxyQdNHlBJzWN40veMoHAhf6CEWc+6idPXCH13WTDStFEDnJX+mS4B3lukqYM9UcuoyXai47DvRg6dQANRydwm9veOsivone4pjxMZwYww2/3o2XbLbjHSO9DLtScbCkqx1ku0dtO+tsOkzJkqaLDztfagckgIjnR0IDqhn2oeK0CCWcHbNON+Pd/aM4nO/D+qSH0HrOSrBrnj1crjKAMpj38nAwwxIKI5ntKp7INZ/9qhuPo+zhxrhddfziAXg9PDPPlVxQqZ2Mw1ZvkeRNebBVIsng8Tq+kdhW2FnxLeuXc7BXwfaRzgUDxFIjKWHGzNi9Z999yWJDn9zFizvOeAIXIkwUq0jTS/6f5+HYZ91UlXWuZPSQPV9iwIsx1cAfTm3oUeVe6qZadi31XSLJb7hFmv+SnBZdzobztnAzksn9ln24IMnubtmHzZ8QsRmNGDshlhdowUn613Kcbikb0XvR1jy2bP6Rm1O+lq+47aVVLyTrv3/l5gWBcfoEkscLPY8Wvd7JOZdMzC38f6cqLgnR0WfCz/jo9M7Y58nhZ+Xks5RqvrGElg6TEXtbj9DKvz8tcA01sR42NjReqQjYyUrP4FdZ6wcVG2l5hNrf2Va/Fij1BSkZqO5jPQMjzXG1ltW0jbIrWz+sZZ511O1hTnzfvd6s9QbryP1h9FEPoxjT8sRdQUVlDSbKhYN9qo5O6F4AnEEVZVT3M24rqegnkZ94nys9i+J2nKSlSSD3SQVfgufnE3QB8M0F8Y9iJyioquBRN0mz4jfB9Y1sxPLovo9gp/RL6uYH/SscP3R7zOvpBRQLhGxFs2WPKaRKXDKvEqqD+PFaJEk9JybBKrALA/wHMFR1n7X362QAAAABJRU5ErkJggg==;" vertex="1" parent="1">
          <mxGeometry x="374.71" y="353" width="90.6" height="18.12" as="geometry" />
        </mxCell>
        <mxCell id="eztBXDnty9-kr-WnthjE-17" value="" style="shape=image;verticalLabelPosition=bottom;labelBackgroundColor=default;verticalAlign=top;aspect=fixed;imageAspect=0;image=data:image/png,iVBORw0KGgoAAAANSUhEUgAAAZgAAAAeCAYAAAARpQgkAAAAAXNSR0IArs4c6QAAAARnQU1BAACxjwv8YQUAAAAJcEhZcwAADsMAAA7DAcdvqGQAABXVSURBVHhe7Z0PTBt3lse/e4oUn1ICUqSY292uo4biNJviNEpgt8ti5U8dRQVyLYX2NqyvTQLdBsI1BbracChbvNymQLQJsFWA3mXjIjULUbKYqhVOlcScRGRHl2CfyuGsEjHRsoqrIuFTIju6rObeb2YMxtjj/+Ck/qDB/o3H4/m937/3fr/3Zr7DE0jz+PPADe72OKb+tgEFLyihkHanSZMmzXLxd9Jrmscc97QVI6cbUHJhUtqTJk2aNMtLeoB5QsjMLcA6hROlmg1Lb708cMI8ykmJxOG+ZobdLSVShQkzTLe8UuIJYcYG881UE3Sa5cMFy0UbZGtEhO0gPcA8MThhH9ZCt0UppZeIBza067vgXqeSdoTDDe66CaZhGziZGsxdrMWB0SyoM6UdqcJGNR52lKP9euoPMu47NpKzCbY7MoK+a0JttQVZuakm6HB44Xa7hc37SNr1bWPahIa9DTBNS+mEoUTB9y2orB5ESLUxwnaQHmCeFBxWmFCEDassMJ7qQle/Ba6kNzwOg0cOwHWwFeU/kHbJQsdXb0WTjWwshwHPv9pLw+JivNfbcaBbjeZf5qfgWpIK5b9rwGxVDQbvSrtSEO78AWz9wArFIzsMm8vQOyF94A9TDt7qhPpYI/JXSfseA9xfNGD16rV4+umnaavB8F+lD75VeGH5uB69V3rRft4u7Uscim2N6H7xjzjwoY1+KRgRtgO2yJ/m8efe4D4+I6eYbzHfE9KTfcV8Yfe48D5Z3Luwn8/RD/DiL4Zn1lTDZ2Ts54fGzvJlGRn0/ih/1SN96MMzzrftKOTbbIEfpBZCXijvU1I6pfhmiK8h+e6/YOXPvsrknMEfvbxI0Px4x06+8LiV3j2OTPI9OsrbTzr55NbyFOUvA/w+oQ2xrYYf+kban1DG+c6fFPItY6FrSLh2kLZglhU3zB8ag2rx0eGGfcwEXVM3ml8Sp8i8D2dxL5mzOF4bjCdGoT9QQgZ1JLhgPm8E8jZD9YIW1e2t6B55H9oAE8X1WTsMWVWo2JbafnCZL5WjcewoaZBxCnnCiPZLiV3/cF0ZgBEabF6fB+3BDrR+9CXe3x4gz+lhtH+QharypbYSE1Tn3RxuXaPXPQWU09TGfakdxmAWZMx4YevvRNbZL9H9EktTHepPvBUDkmzpL5Ro7xgIOVUWrh2kB5hlxQv3hEt+MS0ixPWX0iLfOggH++V70G9TS+nE46ZOzOCqxu6iCLsn7yTGL9Lr9jyoFSro3j4M/Y8D5/3tGDhpQuk/7SYDPMVRkLxrs9H1h2EaOuPggQt2dyI1AS8m7SZ6LUJergKqPdU4XJmPRZL+UydMr7yO3c9IO5aMxNR57w0Leum1ekvy6nii8LrtcD2QEolgxgzjcCn0e/Kx92C1oODZm/tgmhE/TiSqPXroLxkwcF3aEUiYdpAeYJ4E7kxilK2/+DqLOxaYHHoU5SvgfZAMM8YN6yVq3m/kI0/aE5ZbDrpGQLt+XWiN2TGKAccyOCrEiCZfB1wcwmjCF1njwQnHFXrZrsa6kIK2Y/RTO7Tb8yO0PlMP5wSrTaUo+OHj5pwQP/b+dsy+qwc1b2Tu+TnqtrG9RnSeS4IVs0YDbYkLvZdt0o7FyLWDgAHGDfu5JtQeaoLx2mIdwz1hge1uMuddUpXUlovrhhkWv86eGx2EvbIIBbCQZhH/BNxinLB+TM37hzKDhQSTjWXUAvN/Wqlbowbhdgppy6hzkRbLTbBj8ucHymDQ9009BjS814TeYekcLguMzbWobTbCFpMWF2P5PqNBOUwYTwW35RlJrpdGYXVQ+ik3nIKcLXAGyuTuLeGYfLWcnUjfH+6F4b0GNPWY4GRieeSCpT+0nJYOstDNVJvyCpC7ll1TF5oOVaKh1QhLHOYkd6kLDYca0EX1KrBEvXdtsEwsZ54lZkzoGyxFXbFPNdBAT4MNw3byE5jl6v9dM7req0XDKSrPQIvqAQdbkDbJFvNzSeFzjU2GnCaTawd+A4wXtg9rYFpTjdZXFKjdfQDGO9JHDK8FbT8qwa5PWe39NpHqchGnRPzjX7KUaqgecRg+5YT2zSTMUN/lhDl0zfpwE1leTE044LjpgPkym7bRYOUsadiUdnztxUrxoDlct+mYVzaEnh67O4jaOhNpbXVoPqaH4vw2lDVSh/cBB01tI8pXGLGr2hi6IQQljvJVZmMDvYxOJGMQjw7vtChnxxdkvVJas2oWTpa++TW8gR5i05N0TCk2hPT84zB4iGSSuRt1x5qhXzWAba/SQFNnAJdXh8ZyBYyBclpKSMkQrDTVOPoOGfEwvwLv//YEStCHksIG+U42BNz5WrRPF6GxNg/WfcVoH/XvLDkMHN6Fkg/N8U2HJgB/68VHZkkVWpl26eolpStE7Wdt5/g9FP3yMPJslSjusFDNn4cbrMWuYgPMQayQbFUBcMUhKhnBkGsH0mI/z9s7+bKToj+G4JGUkcO33RCSIrY2Picjg6//fFbakUpM8QOHi/ni0ui3fWcmpXOEIKlyuccP6Nt4q5SKGY9nsSfQ/dnkeQdRnjMyCvlOu5QOyz1+qIp5u8jllcmCjjkywgeX5BR/9mdH+av3pSRhPc7OWcz3OClxQyyHqL2K4ipfqnc/o988HkcJ0vn3DUbqhxce5tnHPIvabNKOIIj5rOdHQlTZqTP7FnqdCeWdwRf3sbYyzrflMLlHU/7+xF/nPZePCteToT/LT/2ftJMQ8yWf96Awr7t3hsR6J5X3/gt+ZSJ5bMXqlcmuK+prCsY3I3y9pmWx5yUhemiSTHIWthGRWX7oHZ+nmVUsv6ohP+9Pqe2FajtjLXTuffzAX6T0IkK3gzkLxm5z4vUSpu1yGPmUdCDSVHQviJ8x7DYTjd5a5KVc5BtDhfLOYQwPRb/1vym/SPhYyEWhWDxVtSozKu8gr6MXtXsr0XQpvI7mvT9L/1XIXiOmw8PBfo5e3iDLStwRBC887LTKrEUL0gKOEVhe0kM7p41z4JhRkadDQS695urwb4ZW/PtHVVF5FcVXviThFfQywS27ZuuDmxik/+VQy8Qlee8zVVSJrKCCtmNkVAe9n9cZd5tNbmqgy2dtRQ0dybm1txtVES/AJRZx/UWLjiY9VEz+EmLApQaKQNM4DG6bFaqf66jeeWH5vJfKUo+9RfOrU24hxgwo2ri8DgX2c22YaqA2EKRhz1sxXegaDLBiZqywrtdDR+3VOzqCXqqs+hLt/Pqb2w6rzwFH3LOQFewHTZgKGW8k0w6kgWae22KMQqGk1YlII1RO25L5nJNSnlrELBcPadqbRO0i2s2nVckQ9HsBW3iYhiMdH0Fci6gpymk0AXCRaICkWbHfj9QamCVtjh3/r1cTY6nFVL6S5hdOZgtiFqLZNvGd/tZUWKTrDWPFiZZfpFbELD9yhB0fJGYpJMms82TJltJxi/IoXSeVVczWkecq38K0+4BrsP6GXdt+fkimkD1jbfymYPkJu0UYw3L/Kn80hPXiw2fBZeSEOs7DX/11zuLfFCyUAKvNH8mCDW2FhW4HiwaYqTPFdLIA8zfRjTkc9HudCZw2SATJkUv80wWJwmPv4WtKyZS3hBvS6FhhiiLyAcY3pSE/jSh1HJEOMLJTV9ETW/lGOMDIkcgpMuogj7LrDTnNKCLmNdJ6J02phDln5MRZ531l8puAM0j7c34dex/lq6c1Jv+csmBD+r3Ss1RDYyMRU2RTZ8r4sjNhrsBDZcWulfJQ9kmQY331I2AAHe8upO8U82dvSzsCiWOACfAic8E+ZiHruRQF/ubvhFXwOS/fsjQ3UvTarRiX3keGE8b9JSjZG/1WGZGXVWrIJZko8qrRPdSPxqLwU32Kp7Lovxueh2I6HC5hLivcNKICf89Oe9+zYPFxAX4u10Gnrh5wsMfkzRdr+dJvsWmZjarUcPf9KwdB0nnq4NOMEoqn2Kez8IQS1SPv/P292PSQK/CcXnAOLnQ5JROpTALjX9yjJtqvhH57AZWVF66bwTyi5HHeGKD/pdBu8ZOe5HGnLNLITO8mGa8FxpNqHC4PcwWKfFT8Qie8NX9ghCWwgP7HBiGHOwr8ypLDrTE7yyA0obw3qT4wuaz7rphcTOh2sCgO5iHrNF5ct0CY9htm+q+FVkNfn3HC1N+FrlNmcI9csJ3vpfe9MAW68FFjN/cb0PQrw7w7qc+Vcs5Ndd6VUkxTxbjWi4a6dnzttAr77dORVGM19P8RfI0l3BZuDcZHWLl8m1ijpFxb4IrIW4fK2EGddzj3Y6rya9m6wd2vxboSALv/1LP/sBa7ephCILmpBjQK7mITTFNSQsAL+zl2X7Ywd4YlYitfF6aG6QhlapS/2+mgUgnnfkySXsM+5/B1sPKbMaPhubVYu1u8TxxHMrBTt1Gk8TvnnQE0XVwg6CVDLJPA+BfpLhFKKfDXa0XnScfcAOh1DFIfFd6F/SH1Z2wNR/U9Mc1wfyWuv1QsY0And74LlqoKv/XH0KheO4xGVh1d7ej7LGBFhAYBIYcqv/rqdsJKdZjFtIXKoWua1QQV1oZccw3dDgIGGAVVPnqZ9dMi7w5SYfk15kwVCtbTCNlsRNe5SahfY5HC2TD/yACzrxWzm+iVNsFd1IzW3zZj90wTyn5P56DvblZnges/iIZrbqxky2r/3YGu6w+RTY2CLUtnbnwdpa/Qod9TY7NmM9atSQXbIAK5LDczNnS9V4nX9u7Crp216EpmnMJ3VULMjf12JA7BU7CzCiznfiygwLr1WuBicH97p4Mtvuaj4Lls0qpN6GNuqhuVYEaPAJVH+9he6P3vLODoQ211E5oO7YLhCzl5xFi+rntgT9/J82+wy8jUxBD9l3M/FlGo1DRsmjAZ7CaFd+zCInD+i2pk09Bi+pgNWRug9PXnjzgMdtiw9y0tSW2pkbRtFv+yII8cptgitRQLxv2JBps3fbcwsqPv0AE0NddiV6tZVtFY+RRz9vCz7Nw29HYINiwKNi5TP+Qlq+O0GbZf/RSrV68Ov60tQbs0rphO0qA6V6GJlQrBAWb2/lwGYTvdFnYW5h5nlQ/cDdYOpgdRSdcTMMBkQvduP/ScAbV1BnQ1H0DJESNusQv2jXArFFD+IFswsQqKtMIr1mRT59EL+y2WoAK+2AbD+goUSZVAteN1ZJ8kTYi+m6nUQH/sBPI+7sTwTRNM3mb01+ugVopXr8jMRBZ7+1QWMul95jKV60IikMuyYqdrGoeurR/nh77EZ8dVGNpdhvab/rUrgSg2Q3uQKvBXU/Mdciimb8FOctLk54adRlJt0VEDsGEySHxF3o5maIuoEdxsQ+UJoPvPX6L5b+1SedSi5KQHh9vLFw5iuUWoYN5ApFmNTMhp3DGWL3XGg6iGdksqVFIXbjnoglnn66eBB+UZDXTUE9ucQYbyjVo0U7veoHCg7Z/bgY/+jC+PAe11tTCcakJtWRc873ZEePfsBPNoCpOkrChLAu8/lgedQQvlGCkZVHYtM3VonvOCU6OonHlM0d9lO6k7odG8eYLyPoDat5vQ1dqA16oNGGG3SNmuxXJNUrg+64QhSAhWRDgMMPrf5y6vCieOaTFw5CCaThnQ8PoBGMwsQl/OSqdB/YYLGp0mtIIo1w6ktZgAPPzs7CxtnuALtIJXjP8ir+gB5FsEErxUXq3nO092+m0jCxbJPGMtfGEIX3z2/UTGBiSOMHKJmgQt8kseUPNeIFEumMeA4HcficeO4KGSw7dYIll6FRdUQ5a9R5S9Px5WHov8/gMg+eyLKIYhuvIdP1kYkaefLAlb5LfyLXS9kS5yC9ce0jlBlIPHL8aExVUFyj424qvzrLxDXYV8XaA2oY8sRko4D8sr1Ztikmm8dyVPWBxMohDKkpVvKI88P4Q7c8vHPMm1Az8LhoPp0PNYvdlAZhVZGsx6yHRj+A9dNPI1o2K7/5ynPCtX0Gio0kH/L4dxeG7T+Y2AXjjJdit6exxtp0M9b4DhgrlnuaNnEyeXxdD5NipFKzAentmL9z/qxtt+vvvJRriLKlmtIwsiniVmbDCe6oX5jheckzQkpXhftPCwu7fqYPp0hKQeBAWT/cLzMIs3M8zctPsrB9TPh7JDYi1fG8zd99D4BoufiINVSmhiNtPdsPV3ofcLDt47k3RFvkXu8GhKqqC7+EeMBI3GF+Wg8IsxYXFVgbKPjfjqPCvvUFchWxdm7HA8EyLOg3og24kSPPtsJQZJHsJ56AJtg32woBR1/xhNZNViFJkaKCNYP0km7BlLJc8+i8pz1LKEsqQM3hwQpppL360IsAjnEe7M/VIVSv2dXxYQph1IA828r/6O+dFsanA/n5Oxk0bfAJ0hjAXDoqN3BkSUjp85O3fe2bE2vk2IFCaNdUfOIv9rZsEUCy55pO10+EecLgPRyCVVECwaur4byb2+4M+D8cVNMItqXHBf3BmNBpjw58FQHauQ0dBiLF/fczCWs27Ofl4vyJlFZY+zGAi/PITncX8eTHSMd5fJaOFSDFZOPT8ixYd4yLLcSZb3/sFYnZNTCzH2KWfeIr9Ped5BFm+V3DONxOfBxNMO5gcYoWHv5FsGr/JXLVf5oY4yflNBDX/WGXDy2yP80be2UgPM4be+dZQfsVn5niN0LBXQplfr+R6bmIHZy218WUUN32Oic3W38D12Os/tAb7mZfZd6nROs9tOTPI9L+dQwW7li9/p5K1S3j03Ovnil1v4AVMn32mOawIifiKVS8owxQ9UbeVrLixFw2C/tSlgGkkK5qLyGxpsoXKkTi9KUQmNO6rOMhSsE2XTEzIXEEv5CkFv+/kBTkovEx5LC7WlYr7lwgDf8nIx3xmtQiF0Mjtlpz+eBDw32vh9sgMpu5VRIb//9IhQB0Y+qed3aspICV7mvieBMGWwsKqHH6H8XTWf5et3bOLLjl+Vnd5lsTc75eQWQTv4DvsnGTNgd0u1XxmF1bUS6rwCFOQpIzK35fC63WD2ZtTneeSF+yGZ08tsWgokQS7Jgd248SBG8n+P5rim7qJAeCa/Eet+1+238OuG85IZDm8uivZooPSfaokQ9kz++lt69Mf72GSvF+xWOrJEVb7ssc+1mKoaRGMKPBTNPWGGecKL3J+WxrYQzZ7Jf8QJvfHxemxyVLC4nhVBbqe0ADe46xZYbjxE9pY8FLygRmYM9TaVcd+xwTI2jofKzcjbkg91SLdjcUqtvG8dunsDHGfmiKwdLBxg0jzWCHEg32/GYaHAqQKcm0X5G/HNH0fEAyfM/6WAbu6BZ4nBfc2MqY06aJZorIyIaWqkD/KgzV3+wSVhzNhgvquG7oVUEnSa5YMUxCtTyN6uCb1WFmE7SA8wTwjc+Qa0u3Qof16605+bOo0HFWh9I7Gdfpo0adJESnqAeRJgQU3PHRAijv1pHPlfNP9YSqRJkybNEpMeYNKkSZMmTVJYdC+yNGnSpEmTJhGkB5g0adKkSZMEgP8H7A6ps4I61E8AAAAASUVORK5CYII=;" vertex="1" parent="1">
          <mxGeometry x="286.01" y="378.12" width="268" height="19.71" as="geometry" />
        </mxCell>
        <mxCell id="eztBXDnty9-kr-WnthjE-18" value="" style="shape=image;verticalLabelPosition=bottom;labelBackgroundColor=default;verticalAlign=top;aspect=fixed;imageAspect=0;image=data:image/png,iVBORw0KGgoAAAANSUhEUgAAAFEAAAAeCAYAAABUgfKPAAAAAXNSR0IArs4c6QAAAARnQU1BAACxjwv8YQUAAAAJcEhZcwAADsMAAA7DAcdvqGQAAAWaSURBVGhD7Zl/aFNXFMe/2wQ7WJaCf7QwsGOrVsQlTqSFTVo0tDCs3WZZHesoWnBDU7pJun8iRamTSWyha7thdaCp/jESwaWFSjKoSf9QEsEljhYjOJJOIRELL6AkonB27nu3JumsoqZp/3iff+695757Oe+88yvkNWKg80q8LkedV0A3YgHQjVgAdCMWAN2IBUA3YgHIM2L8z0F07e/C4FgUGSmbIzMTQmA6JVdLRQqR3w+iY/9BjFz5vy6p6QBCM/M1LwKiTxTE3Fayng5TYspJrYZK6gmk5Y4gRs4mAxnaXJSQkuKTpuCxVurxxUjx9ZDB0EzOW3JLkPaT3cA6HgtKQfFYoVpydhTHJxpw9FczjFd9CCKJlbPiS5eo27gTgu8SYP5pLco0yQLE4e7swEhcLl8A4+e9OLe7Sq6ewvVTcJT8gPP1FUiej7IggmSuM/4dgouHb0zPuGOxEJZUxu3kuCw8L03+w5X8la3kuSd2NJRxG8sMZJ/I9c7iEj5lJZfqeRwVO9njPh6gsLqjER7awjo25nvnYvEozZbK8iScVTgkeipZwX0eUqRIEPyRZYZ28ixdLGe55aRm/qBb+nNNGCPXV6xjpSPPsIuFMj5ArttyweQVlswVH44ngbZP6mCUMhE2wYs8bK2D+dmxXBTik274YEbLVrOUMKkogmM8flmNxQ/mDMKhsJxraDlREr0mskoT6jZlTYiZmwheB8oOmVEhRQsTxUh7F9yzcvkCPDcnqiQRuRxgZbpRY5IiwXQQJ3n4YtM6lMxGMXrRh/hsFZqsZiT/8CB4B6io34Wm9Tnv9SAO34URBKZ476MW7NpRBSOfDUwl5APl2FhbjsRkGJqE19WliDqPoKPvLlpMAQRWlWJdNX9M6ZEqwWMibB2UW9+WQz7MkiBXG+s4r0vIy4ecrxKXB6jR0Eq2s34tLd3zkNVgI+9cjrofJMe2VnLFtWXsdDNZhjgR8FklESbn3krazFVevHF4qJGae710I6HVDEXxUg/f7ZxSeK6oz+SF88q3RIgoSM+1WqkQTvaq3xg162WlXlJKYFzFg5LO9rEzbgz0R9g7a2F+j9crSlC2ulxNRzW1Mi2tKucoOonITbHglHDBgSPvt6B2tbau2LYL5f0+RPisscyMtkN9MP02gLG/RjGa6cY5WwOqysT7876xVO1Z3jQaeW5U53nhbN7dh+6Lrej4lluFtQ8RuB6FcpU3lkk+5KBHw/fn0NZkQ0dnHA3GGHzTd6FwHsd3T8mHb8hxHsk7Pm7r3oXr52wvVtNhRqmc450m/DISQX3dJLr/7Z1r9BZGuPN80uymisKOypWwUVRC4erLChFWmo7pCbuabmzjOf3EbRf/YOBwfVJBOXz5GUdIW4V7uY074M3rQPJJU7jfTvYuC1lkWGcRd8m7E14aHk/MhXMGob4dWLPma7j/YadVXRUIuU8hwIWm87OcSrhkxDG6/wO8vfEIQhkRVkLHFMbODAKmbq7WOUXjOZjrO1E9FkD4gRQwkTMj3IdopK4Mwsd3Hj3eh099rbBeEK6eSwrphzw8TiEl8krWuqLP4uQrm+x0yEEW/vnX7o5pgqVG9S7WcVu2yY6526nSYGEPy/GVW16y79nMci4Oe+zkDQVp+EAzbeCzG3baaDik+Z8y4aDmFisNj/rJM9RDwxEReS6ybhdnDWQ5cYOfukHD29lrKzdT474BCqpHhZc2UuNhF3n6B1R7SSMmyLN3C7Wf8JI/4CfvWRtZzM3kmFjY4YtOOswV1UI9br+qo6eXDVNjJWc0P9heFJG6XuqG+3zukTbN+aMqhfhV7n2uPUT5JhNqPuS+Ka/sLAMec594aRLB5EpUmWq4Vyx7ftIvAvq/fQUgr0/UeTl0IxYA3YgFQDdiAdCNWAB0IxYA3YivDPAfKiYSNrS4gDoAAAAASUVORK5CYII=;" vertex="1" parent="1">
          <mxGeometry x="391.71" y="399.83" width="54.78" height="20.29" as="geometry" />
        </mxCell>
        <mxCell id="eztBXDnty9-kr-WnthjE-19" value="" style="shape=image;verticalLabelPosition=bottom;labelBackgroundColor=default;verticalAlign=top;aspect=fixed;imageAspect=0;image=data:image/png,iVBORw0KGgoAAAANSUhEUgAAAGEAAAAVCAYAAABWtYB0AAAAAXNSR0IArs4c6QAAAARnQU1BAACxjwv8YQUAAAAJcEhZcwAADsMAAA7DAcdvqGQAAAUOSURBVGhD7ZltTFtVGMf/OhYaRynJknWJYqOpg0yDcR8gCm4JRg1xbFmcy6QGAQ0JL5lOSozF6QIjGS9fbDWTOuNalxApzg2WLSUG6RIhQJwty8hKZLYxmHayhLuMUBLM8bn3njLKbnmrUD70l9zee55z7u3T5+U8554+wggkWCdCEIRZ6Sp5mwaqJOnyIR7l5wT/M8JVI1JTdyA9PZ2OKnT/zTsUSDhhndAUtOLevWG0vkiNrBzselKWK5FwgiICeprs8PLWmhH8GBugc0EOnpcliiScoAjN5aNBckVshK67YKVz+Z4MWRCFhBPWEe/oNfo8gJxnNbIgClGdELxmh+WEEcZGO1xBUSLA222BsdIIS7eXYmUzIOpkRcNHRtS1dcErhu5cEK7zdaiurIN9INZYjgU/PD0euR7sEHWyoK7ynQX2XIC4RI1khg2eNrAah5sFpqZYoLee5enLmMloYPU9PjZ108bK1HpW75rh4+OFj3VUGFizi3QiPW99b2Dq/BpmqqhiNk+A+UjvV9RvMts4H74qAqyjuJkN8taamHKyGrWaqYvKWFVpM3N6A6RngPWdymNqfQ1zTvJxxEMr19AvDTBrG3H+sE4W7MqELtgCCzpx51UVesqr4SBx+bS4/lVJQ5Txw3GsGnY/b64CzaFWnC9Zeh71n6uD+62zaNwr66DJoNI33ICRt4fRmBVAyzMtGKJyePC+1L3hhOsBkvah1loMHbd0ZgbZNWiF53YrXtsuyxZlwhRzflrPnFO8KdJfz9Tk0ZorstDX28bMX/dRHMYTN2srtbFbvCXia6dMUOcxs0dszTB3u5mZ2910tRZizwT3lxTx6v2szcsFnEg9ZRSmo0jCD1tbWm8UFDzHKfXVJta3YquL0+5zdI943yqPikv0jUvhY7YDNC7XTOGyEK6nPtLByzhBjAilh202BlmznvQ87lzGOCslxkwI14NTi57A5fqTfREZqrB3FEIopIJKnGqFHhjTD8P6QTfuNOybrwDCKL3G7M7A0gsvL+xlRjju8uYqWElNwBzpSRpJ+zEjFrycV4c08w10l/BaRr3+kSC0WbolK5cyQTjetUNnq0U2l6yKgQakvt6C8h/+QmvBAysJ3dVINzhRe/kGTuylb/ndD9UL9DslV8zjZuZ8MV2oelNIzfSapPQruxDg/cRMH6svssW3JkxSRImRn98m1QXfd/tJTz1rvi53S4zbmGFRxK2c2DJBnsINrMPPBRJ8VglPRWRHU3EHSRmLfE+YGMPgMKDdkwWdhl7dHRZJvDMt7E0BQ198A9WHRxCOt7hw2wMrrbWzX8rATnjQddZFwkxow2rO0cqsdQgHSx9k78bhx1g/fz+I2C/yw/cTnY5mI0tsXbQDJYXQ0vWWk4Q4RCI1Bf/+2Yv7ukwEO60YK+zEucJpfP5JByZmb+LqGTsm3/gKtbkp/IY4kbYVScN+bH0qBb9924GUxsswpXfh4zP9uPvPr3A09UP72WkUPR1l73hZpjF60YO0Q7l4nEtWzJwHF95rx/j7JjTmLbx7O1IeG8KVnycw/cePuLTlGJqOPAFRQ8X/E0KCgNlkDTThMAoJELfFkzWaOERWNOS9+oh9+mnScy4ZmnnF10psNUG0HymhaCvJtklk221cQChuW6joARG/Q0XtTeUAEZWs08JgJ4fE7gARevZu7TILj+iI9oumhWTbBQ4QSfyztglI7KJuAhJOiDvAf6LGBEPr1CDPAAAAAElFTkSuQmCC;" vertex="1" parent="1">
          <mxGeometry x="390.36" y="420.12" width="59.3" height="12.84" as="geometry" />
        </mxCell>
        <mxCell id="eztBXDnty9-kr-WnthjE-20" value="" style="edgeStyle=orthogonalEdgeStyle;rounded=0;orthogonalLoop=1;jettySize=auto;html=1;" edge="1" parent="1" source="eztBXDnty9-kr-WnthjE-21" target="eztBXDnty9-kr-WnthjE-24">
          <mxGeometry relative="1" as="geometry" />
        </mxCell>
        <mxCell id="eztBXDnty9-kr-WnthjE-21" value="" style="rounded=0;whiteSpace=wrap;html=1;" vertex="1" parent="1">
          <mxGeometry x="359.09" y="160" width="120" height="60" as="geometry" />
        </mxCell>
        <mxCell id="eztBXDnty9-kr-WnthjE-22" value="" style="shape=image;verticalLabelPosition=bottom;labelBackgroundColor=default;verticalAlign=top;aspect=fixed;imageAspect=0;image=data:image/png,iVBORw0KGgoAAAANSUhEUgAAAHoAAAAZCAYAAAD+OToQAAAAAXNSR0IArs4c6QAAAARnQU1BAACxjwv8YQUAAAAJcEhZcwAADsMAAA7DAcdvqGQAAAatSURBVGhD7Zp/TFNXFMe/28wkcQUW/8DFTBNTrZhJnVtKMn8QRTExTCMKWQZpJgwSBWYiNYt0REdDwiokytiiuM0VTLYUsgTIXKibUNwwrYtrWTQCY2mNM9Rh0iaQ1ozk7tzXC23BQllUOttPUl7vue897nnn3vM996XPMQJxnnmeF8c4zzjxQMcI8UDHCPFAxwjxQMcIMwPtGUDHOR00R7Vo6hyAh9tcZjRXlaGsqhnWB9JZUYHreiuazmihpXGZ7vgAnweecdEZKXdM+PRoGTRnOjAw/dpxJ6y94hksGB7Yv9Wi7LAWzddmjsRzywwr930u+PZqCqeRlar1rMfpZm73bWZQy1imppKVHjIw24iD9ZzMZLIcA3OI0xcOB+vSZDJ5MR8XjXXUxs4VZ7Ps7TImUxvZiDhrTri/km/k67syJj/Zw7yii+O4kM1ksnxmvCsMTx0vs9Tms2qTg7lN1TSW/cwwLLo43h5WKSOfay3CEJ5FIt6EE83HbchtqkHGEt5Owtp1gLWmH3m/1kB57xRW11uBtL1wU+9KfkoYrGfehu6KaMyHjeW4eCKL/vNseGA6ugMHOvPQaVNDKY1ViZKDKmh2mZGyew1SpPPmwoOOWjOydI1QLrXCRK65llBGoJ4Eqd8Fa7eZ/K3BmuWSIQxOtH5QhmanaM6DpH11uPieQrQeQf956BOOoW3nSrjaBshghyt4Uf9uhZEOJWmz3GMSEXDG7OdY4YXbosFxMCPNctmmBmbjzTEbM55uYEZ78Jx/+nivVDI5zeL9LaF5xX2pgma8jFVeiXB8o12sss4irWCvuVq6Z2mH29/HcXexCr5aPgpd5U8T2/lSZpRWsIMZcoJiIbA1biafs0NXeRhCU3cwUeDoTITDj3DOUisneyFrjzhvT+IlSeLXlrL2UWHi9PFUKWOF3837ho+fYQPbT2PZfDo4zGIhyvUhwQ9H+Kp70I52OpS8tUGksijAZYf5Mh3TsqBc5Tf5ceJ2nwvYlgFlZHk7gM8CUz1dW5CFjKXCRthvmOhvBjLmfcPHj7O3FSaSp7xtSmEhqGi2dNLxHRUiSNwIfdc9TtXbEn9Y7Z9twZbjyWi0dUI9+VCpCrU/SIFyxWyh98Fck4s60rx5M5dGXz+FxEwdcKQT93UZgQn4VysKUotgOXEVQxVKeAZJz9Yo5tB6wW9Ue2TokP7VEC4emAwq6W7+ehRZq3B16Bg94tkYQHOhBq3/YTcyp0ZLuNBRshoF3VX4kcaiElZc0yFx1ynkGobw5b4IJqO0rgmucVynMs9ynaYUuWdmWnC0UAVoXsBETlVyPpeTaVWm1xSszzbWkBOqZbNi1UvX6q2izYkq2RphRtr9TN9NhNNn93AXM1AtZegbYe679BH2qdQ90N9Ec0eF9NRlVO114Hw3GdelINnfTfvNVpzq2wv11gVM5CtUyNpJxzEv5Q0/vsFmaI5xkVFh5XIaW38vzFu3SqvQ1VaAxMREFLRRag7H4gTpXPfY5B09sJ7Vo4m+5W5cGwWylYAkLinugM88Fg2n7UAK+TklYT7KwgXQWhVQHynHrhEdXk2thFm4PpW6fZQWcz92QrUzCQM3luGYPh2moiL0rspDVpILpnEV6nRqKKTtzAJyxwTtYS2cr9NYxs2wL1ajXrMMxrwd6FKUY+14MtSfU4qjcfJAry7swJ6QtDwdH6z1uchvSULeQQUe9tkxMGqC+XpGqGwtJHc6ULanAs6taoqFA6Zb9+G+TL4HSZivW4v1VcvQ9nO5X2q4JJUnBNrSup7Ey1+UhCYrr5tsY6IRRcwcl5fG7mbef0RTYKmVsfzWCCrnMe47v17I1rStzMLj94/Hh28xudxUXJpMzP70vrkxMGL+skceJHHht1f/ex6tbcF4SZ+z5XKW/01gT85tm+khRjQ5njgO1n7oNSZTVjPL1PoTfm3SB9ksTD9Vo3BGWHuxmAhemhhkeYYDPTd8tctk8sDKGKMHtl3G5MVGesRRwF1RfG4PZBdHayEVzZlUPAZnXn8WmioopaI1nxmdXtZTd0669oWTBE/hsciiv/9Ab0IeCt+cwN3BXjSWfoibWRfx/Se7I3yN+oR5cQLDPTeRfigPKaNO9Ldp8P4XL+P4D1/jcFpwmZgMhXwRmk33kOz5BS23kvFG0k+4OTGBB6/sRU7qS9P20TGI508rzH02PEzZgLSNKiiCXppEBRMu2Lt7YXEthiItHelpKeF3AhM+eB5SlS4VzPTdQ3v1JP/Z8R8HxgjxHx7ECPFAxwjxQMcEwL/4fvJSSBH8FQAAAABJRU5ErkJggg==;" vertex="1" parent="1">
          <mxGeometry x="380.15000000000003" y="181.84" width="79.71" height="16.33" as="geometry" />
        </mxCell>
        <mxCell id="eztBXDnty9-kr-WnthjE-23" style="edgeStyle=orthogonalEdgeStyle;rounded=0;orthogonalLoop=1;jettySize=auto;html=1;exitX=0.5;exitY=1;exitDx=0;exitDy=0;entryX=0.5;entryY=0;entryDx=0;entryDy=0;" edge="1" parent="1" source="eztBXDnty9-kr-WnthjE-24" target="eztBXDnty9-kr-WnthjE-5">
          <mxGeometry relative="1" as="geometry" />
        </mxCell>
        <mxCell id="eztBXDnty9-kr-WnthjE-24" value="" style="rhombus;whiteSpace=wrap;html=1;" vertex="1" parent="1">
          <mxGeometry x="350" y="250" width="140" height="70" as="geometry" />
        </mxCell>
        <mxCell id="eztBXDnty9-kr-WnthjE-25" value="" style="shape=image;verticalLabelPosition=bottom;labelBackgroundColor=default;verticalAlign=top;aspect=fixed;imageAspect=0;image=data:image/png,iVBORw0KGgoAAAANSUhEUgAAADUAAAAZCAYAAACRiGY9AAAAAXNSR0IArs4c6QAAAARnQU1BAACxjwv8YQUAAAAJcEhZcwAADsMAAA7DAcdvqGQAAAOESURBVFhH7ZhvSBNxGMefohdCXHuXQUhvloLElLAkEiU13zh8kVYvFoIWgqyCmAZdCmG+sKm9GL1wBen0hTEj2ApDA7t6EdyC2AmFKcJdSGxgcEZxE4Wn526/uU0N9+dFTfzA7nf3/d3dnud+v+f7u20fErDL2M/aXcVeUrlCTtdUZGUFVvWdAyYwHTQkgxwdKQn6jx+CwwUFUEAf64jE9Cg5mlQJdC78hIWnDcZRZXGR0cbI6ZpSvvppexHKi/OiAuP/SWpFgWl3B3Q8V5iwExKIr6k5VwUl+VElxr9PKhyA0e4mqG19DKGTnTDQdIx17MC3eRBnAfIrS2DLFbr7bUXFOb8be245kB/y4ZxK0loIhTEe7e08ej7oQnZoSwK6bzRiTYsTfVL691MnHchxHPKTMooTLnQ025EfEzC0Rm7OzklARm+7DZ3vZFRVSm7Mhlw1JdduR48UQnmmB2u4RvQsstPTRJV86GwuQ+sNNwpLGlPTR+zlKCkzmsv1uFTUfqko9FZQrK6tScnDNuRnEr4s4DSeiPXJHB0E0WnWb1aBLinanSqhgAf5CzXY2OVBMcTEjAmi6yzFYW5Fr8IkHRbrpqSC6G7xoB5+DHmcRmojCQ2D4y50jQdpLxU0DL1zo72+DG19PgwuMzlbFC/aKHjzQJAJjO2T2oyKU7f0keFRSHum6NeeQK7eiWL2JZjERj0lzigiOgAc7uB+X0F6Sc21KihNXgpSwAR1Dz/Cwm0TjNpOwZUHfpB+sK4skb/4aNsApYWJQUVA/qyvW9tZ+noEIutsf1YEfxigylJEIcaIgDKr0DYV8shy2+DRq48wWK2Ct60WmrpHIUD3zJwwzM/SDSzlUHiUSToREd4/oza/c5OlL0+hQzeCardRV/KwlYbTjM5P0W6DRQ/a7gkp1tRWDPdrIcPI2P00FLooxmYvJvqNNsOjmWJtfRHaVFOs0Gq6BKoI5jCcNW7fa7rd25MdJ0Pi65QLpxbTKzrVbyfn64nX+bKAPdUUd59oPOzknx6/A9B/+T4oZ+rANC/CEccglL+5BlffHoNL500QnlmF0/290Jw0l7OE3igmRlzg/lICNx1t0GCJT/S/Q69Ud67D3e8WimUFpicUsHQNQHdTEU14Qk8qGc1YdDVamTeghU1VM51wKaLKODXkQMeEzIQUMOKiWNlhjL0/XnKFvaRyA4A/j0d5KSj0M0wAAAAASUVORK5CYII=;" vertex="1" parent="1">
          <mxGeometry x="399.04" y="275.02" width="38.1" height="17.97" as="geometry" />
        </mxCell>
        <mxCell id="eztBXDnty9-kr-WnthjE-26" value="да" style="text;html=1;align=center;verticalAlign=middle;resizable=0;points=[];autosize=1;strokeColor=none;fillColor=none;" vertex="1" parent="1">
          <mxGeometry x="414.01" y="320" width="40" height="30" as="geometry" />
        </mxCell>
        <mxCell id="eztBXDnty9-kr-WnthjE-27" value="" style="shape=image;verticalLabelPosition=bottom;labelBackgroundColor=default;verticalAlign=top;aspect=fixed;imageAspect=0;image=data:image/png,iVBORw0KGgoAAAANSUhEUgAAAIEAAAAdCAYAAACNBA9oAAAAAXNSR0IArs4c6QAAAARnQU1BAACxjwv8YQUAAAAJcEhZcwAADsMAAA7DAcdvqGQAAAjESURBVGhD7ZsPbFPHHce/myrhaXUcDQlnY8wRpE1Hs3ig/Nk6FouRGSEcIzVNyposHSDStU66dQkaCrM6EpjShFbgpBJJCVvSSFttVBQnGrKhFGcTkZ2JxpGoYqQgPwZTPIFkI5CNQPrtnn2Bl+SZOI4TmpGP9N69u3vvcn9+97vf7875GjGwzFPN13m4zFPMshAsM10IIhCGvAjxWKoIDTnhnVOhAbhOe1Jej8UjBO+QwHpzaTBNCELwHHfCx2OpQDhdgz2D6chW8YRJ7oYQComXXFepUfhdFyqrbRB4ytLCB+fxpSPEC7ocRIZbsac9G+bfF0DB08RZbq9OQ9q312DNGnYdHJTtLEX+PrS/9An2vOdZMjNqqbJwQhDxom2/HVub90LLk2KoYey8jdufmaMxXW42piuJSTS/MmNHfx1ah5bFYCFZMCEIDLSiKX0vyvMf6QApwriX3dUo0mpiCbJoYfy1Gq1HrEt0WVgaLJAQeGE9aofxF1shP8Qh+Dx2Fpaj4PuxlHhotlWh6mwTrMM84WnnQQCeU62oOZa6ZXJhhGB0ENZRHfQb1TxhOj64T7BgZyFekFcUj1ipha4kgM7zHp7wlBIS4Dy2B8VbG+BWlePwb6R21vxITAhCXtjMNagx98Bzi6c9hM3qQQ+EuzzKEL50M11QgBfW8oTpjLrhZIGuIAORsz048FYl6o/Z4ZM1pzV4nglT4OLYE10ShLNtqH+rHm39vhkzMHLNA9eXC+QL3PLC/l4line3wb/hTxj4rAu1P9fEtaPkiSAwKPZzCfKfS8NzPypB5e864QrwbHHb+BETZK1qITePRbnjppaqRnIIQXL8UUnKl7vJz7NEwucbSKlUUouHJzDch9h7VVZWmjz+v1ZEv8nSllKj00/hO2Ea+5ilZdWR4yZ/ScKETXyf5QV5wiLjt5nI9OcRmrjcTRXKLGp0hXmOiJ+6jdPbK/ZZ/PYnQvj6BeqoNVAeG48+7zwafmeMut/Mo7xdDdRtv0AXXOyyd5BpexYpX7NGx3JWIRg5WkoWr/gk5rHGZrXQSDQnhruZFTZlgPh77zhIvupMmN5h+cotTHAknXndyjpYSZvapaVzLjay9yvIep3HF5ObfWR6sy/WFk8LZbE67v5UMryy9U5eCILjDrLs2kJbdlnIMT5/qRfHr9ElV06YwvdjT7MsB164x1+FMZc9XnXgk9PMXq/RS1w+lt/PdMrmXMlmUAThIAvU6XFU1qQ98DaqZDwHr1fApJZ6yDPie3b4/xOLLiYhjxuaX+pZWyJw/b2T1a0KO4oe2TohtrSJJm7R+uxYQpKERu1ofT0flUf9yG0awLmTtdCvnZvSn0kAwuUMaF/k5dwNIfIg9ghmUSieiT3NIgRaVFvKoha+cNHO1nEtyjdLvP5rV+AeZeNdpJV4AQEEPuePckzaAy9pmYMo4dpYtDOhVs1xvZNwy4n6H6YhLW0uVyVsN/j3Mqi2Hca+HzMhjLgx2MvEs1IP3UqeyfBd6mT3MhSuT95M83UUY81uJzIP/AP9lmroVqfK5FNDX8lc7O3FUVtA3KBb9a0SdF7h2ZwEvQMBLhsbutxyFIlagRO6HJsF5Ruls0AN9Wb+KENgfITpDzWKXpzqPAq+mPWvW5eZvNW7Uo8jI7dx+/Zcrl6UrebfP4bIkBOtTAaqtukkQso04RkWbNZBG88RSoDsN87h3yf18B/+KUreZgbbjRQ5f3c9aDsWwN7OD3Giqx/9A+z65wlUP8/zOYkJQcALF5vd6pLCKbt/8rNAgW+ks+BOWNaPFa7Y2H0HtFMqwoSs38VCPcqKZHYWHoglGZH5nVj0SeC7ZGV3I3QbJXpKVhMmhyrXiH3dw+j9bSZGzYaoN+C8Oj+Pw3uiBYp321GVmw1tkQ468cqdKa2JCcGDe7jHgsJ10qbGmwUqrPoeC679V/ZMQK3WiXekS3X+VRfsZ4GCd80ol3ErAzfEIy0NVknU8GJz74FoqbDBlmgNeU04P1Rr9ag9eQ4DTbnwt+9B8eutsI8mIwwBXLlUiEKJ5pYiPbhLTAieVSGDBaE7jz4U/maBRXYWKJC5jg30aXm/XrNRNCzdGLvKE+760NPcBO/OLnTVaWWXggnBzYQtG5mpWiqTYMWzog4MIjzZBSEPOo/M3x6Ih2K1DtUfnMK5D/TAGROKSw+gZ3iGyfwYFFCttKPvTGCaRg7Bd6oepl7JWXHMSZhEZp+A4//URDlZBjIdslDDLgOVbt8U9fUbzkt9Zo7XQpuUBuoe5/EphGnkeAXlbTdR49EGqtDmUMVRdxx3UsRP1tfiuI6LibhfwnzrnKoGshyqo9JyA21h7Vcap+6bxJj/PsEMgn5yHDdR6csm6nBNsF5MAMFBdT8T3fEc2mI0kGF7HnNxs8iw3zGlzgkLQZRwkIJBdoXDdOEPYuHxNnBGyPITJVXYHtMNvKxJXzUuop+u3MT3Kp48YbH9QTYE491kiLevsRBCMMn9CXLbWsjEJk5CgnA/TH4v3yRyuWns5syvZhcCgQ2CVkk5hyR/dHKDpDl+Rfwfl87YXUyG6G5hCspJnjC5jxgoK6uCrA81G0trFjVhvA2sBRSClDMx22YRMy88VvSw9VudvoKv1wJsBxtgzzfj/Zr4hxiaV8wwBz+CdXjqijQ3xNNIAeb95fO2vpNnFK6DLmZmZUDFjdnIcBsaDk+g7OThhNzLrzbq2Q1D1TotCvL34Y0fBOEatKP1VQNaFGYM2/eh4Jv8JTkUWtQ2G+HY/xEbyuQQ/tKEvpL3URvnNwmLgwbZO7Uoq9djxWUXnL31MOx1Y2vfv9D1ypMTzZTCdQInjk0wMUIOW0f0AGLkekIr0UNEg7L0MctGPMKeFjLsjR1wPHmC5Pf0UfdxKzk8YxSczY5ZUssB0bR/Pokg8IUAxYb4P/lKBvHXxv71zDVMuFDmxnzuR8ZmbUrrsXiw+n8RgWaDOu5y+VVi+T+Qlkn07GCZ/2eWheCpB/gfx/tX8FSDaawAAAAASUVORK5CYII=;" vertex="1" parent="1">
          <mxGeometry x="378.16" y="490.59000000000003" width="83.71" height="18.82" as="geometry" />
        </mxCell>
        <mxCell id="eztBXDnty9-kr-WnthjE-28" value="" style="shape=image;verticalLabelPosition=bottom;labelBackgroundColor=default;verticalAlign=top;aspect=fixed;imageAspect=0;image=data:image/png,iVBORw0KGgoAAAANSUhEUgAAACcAAAAfCAYAAABkitT1AAAAAXNSR0IArs4c6QAAAARnQU1BAACxjwv8YQUAAAAJcEhZcwAADsMAAA7DAcdvqGQAAASUSURBVFhH7ZdBSBxnFIBfSw9b2kFByIS2RKkSQysOSKrQLi4q9RJjoIs2dINQih6qKQR7spWWjYewp3TpobUJQVNougsVN4eyBuyuB8vsQXYWWnYFZUfSsFNS2IGVMTTw+v6df3dnx5nEag9C88HMP+/9s/+8/73//f/b55CAY8rzvD2W/H+M039dAUXnwoHQILmUAref/GfGqUtT8NFaI7Q3cEWFXR10nV17XGFFhJ7XknBpIgoq19TBEuKoGKkQDvSHMc1lkwIujwsoCPy6Esci77GTv+XHgWsyGlyucHTjjDSG+r0YStmH5pDhzLihW3mucCKN4Xe8GFyvH+PIxhWiARTeW0C3T+d/oH6hDUMbXOFC/rZ/3zhHNI7NWMBAtMBlO0WMX2FhncGEi2OrPFzGSTaJFJeJoyVEZg0iGR8MdolcYScH8g1qLvbAGY+pcaVJAt95DeZXU1xhz1ZdgejsFEzNLkLqL66rokNuLQXqLhcJ9XcZFOiGM69zhZ2MDCvU+LpPwt69Rfjs40vw6VcxyDnuHc1wmiaprWdrmcs9iFiSMTQWxLhKofiSQmGLv7E6U17YVrfLc/TeWITy0hlzvQnYJvkxuJJHo2Rg9jbp2qYx/pC/ZKG8fgXq42ld9ZxyIwSe6VkYPLUH+jYpMhoUza4ymVSE7hMgnTZltoGqm9Q0NYBzxMjTqRi13TDx3fcw+24zeF7yQHvfBRjW5uHqHcV8zYL4ajvdC6CXTJkbp4C89T4Md9Ljdhx+XAKQpgZBMjsJ6r+rAfR1WjbZPTCY9WIj2Pddk8p6+wTG3tpvvqKoND0bL7D3YpB/YIrcOAkmwiMUdVpH6zFaJxKM9tVMg51NkDNkR69UfsdEA+0X/uhEZb29LdE5YGEnS58nxAaXSdWwZasKySgN2TkKvcyLHP03uTzgaBdzewURxD7+6IC2lSZ/i9D7Zm06DDVnZqOvtcVlOdSoN05TIEneEM/3WEJKAdqYp/sI9LxhHc4DLzZSUzIowPtRN6N0v2BZowya/N0ktYMw0ltvdJnHbKRhaHnFFOuNe/wIHlHT02r9Ia23n6np84FUF58GOHGKmp0/HasKUfSxOzRaY7edhNg9SpEvZmHUYfvR/sjRvRlONJlyvXEvN8BJavRSzRfqnTCE9603hgdaWsmAJcu+ZKG5iyWUDFmW+YzdHCxeuwrKxZtwc1pyDGlBlckJ7dBS6TR3lBr5nyaxo20IJ+fCOPPhEPrPect71cyqw/mjhNErDOHCFpfrMDD9TQDPnpvE4PUZDEgdGLguu1Ym9GWMfCCg9+tabeN8thpFLBbpMgxMfM7OxtrGWM/TzlaCj2X8zWU3ymerF8MKl4macSp1SgJ2zFnqqvsRDJDXvA61VgWnauIwOFU3VePMo0PAgapbyc3jbSj0h1AucZUTT6vnDoRZz9nHqBpnbLBqNoiRZAITyWUMjXbg2csLmH2SYRznSvjgHKwSLqQxHv0WF2IJTN//d55gieR/QvjdYBMbGo84LgvnhDgkxfU4pt3T0YEiZlfTrhn87B//YXlm3GE5xsYB/AP6IHkn0++AEwAAAABJRU5ErkJggg==;" vertex="1" parent="1">
          <mxGeometry x="437.15" y="607.05" width="20" height="15.9" as="geometry" />
        </mxCell>
        <mxCell id="eztBXDnty9-kr-WnthjE-29" value="нет" style="text;html=1;align=center;verticalAlign=middle;resizable=0;points=[];autosize=1;strokeColor=none;fillColor=none;" vertex="1" parent="1">
          <mxGeometry x="320" y="258" width="40" height="30" as="geometry" />
        </mxCell>
        <mxCell id="25oYey_wNOHvCAZoPnj9-3" value="" style="endArrow=none;html=1;rounded=0;fontSize=12;startSize=8;endSize=8;curved=1;entryX=0;entryY=0.5;entryDx=0;entryDy=0;" edge="1" parent="1" target="eztBXDnty9-kr-WnthjE-24">
          <mxGeometry width="50" height="50" relative="1" as="geometry">
            <mxPoint x="214" y="285" as="sourcePoint" />
            <mxPoint x="555" y="329" as="targetPoint" />
          </mxGeometry>
        </mxCell>
        <mxCell id="25oYey_wNOHvCAZoPnj9-4" value="" style="endArrow=none;html=1;rounded=0;fontSize=12;startSize=8;endSize=8;curved=1;" edge="1" parent="1">
          <mxGeometry width="50" height="50" relative="1" as="geometry">
            <mxPoint x="219" y="609" as="sourcePoint" />
            <mxPoint x="214" y="284" as="targetPoint" />
          </mxGeometry>
        </mxCell>
        <mxCell id="25oYey_wNOHvCAZoPnj9-5" value="" style="endArrow=classic;html=1;rounded=0;fontSize=12;startSize=8;endSize=8;curved=1;entryX=0;entryY=0.25;entryDx=0;entryDy=0;" edge="1" parent="1" target="eztBXDnty9-kr-WnthjE-13">
          <mxGeometry width="50" height="50" relative="1" as="geometry">
            <mxPoint x="220" y="607" as="sourcePoint" />
            <mxPoint x="555" y="431" as="targetPoint" />
            <Array as="points">
              <mxPoint x="287" y="607" />
            </Array>
          </mxGeometry>
        </mxCell>
      </root>
    </mxGraphModel>
  </diagram>
</mxfile>
